<?xml version="1.0" encoding="UTF-8" standalone="no"?><svg xmlns="http://www.w3.org/2000/svg" xmlns:xlink="http://www.w3.org/1999/xlink" contentScriptType="application/ecmascript" contentStyleType="text/css" height="263px" preserveAspectRatio="none" style="width:246px;height:263px;" version="1.1" viewBox="0 0 246 263" width="246px" zoomAndPan="magnify"><defs><filter height="300%" id="fo9nyeu" width="300%" x="-1" y="-1"><feGaussianBlur result="blurOut" stdDeviation="2.0"/><feColorMatrix in="blurOut" result="blurOut2" type="matrix" values="0 0 0 0 0 0 0 0 0 0 0 0 0 0 0 0 0 0 .4 0"/><feOffset dx="4.0" dy="4.0" in="blurOut2" result="blurOut3"/><feBlend in="SourceGraphic" in2="blurOut3" mode="normal"/></filter></defs><g><!--entity App--><ellipse cx="207.5" cy="28.6406" fill="#FF7A7A" filter="url(#fo9nyeu)" rx="8" ry="8" style="stroke: #7A3A7A; stroke-width: 2.0;"/><text fill="#333333" font-family="sans-serif" font-size="14" lengthAdjust="spacingAndGlyphs" textLength="27" x="194" y="50.6357">App</text><text fill="#555555" font-family="sans-serif" font-size="10" font-style="italic" lengthAdjust="spacingAndGlyphs" textLength="47" x="184" y="17.2822">«Impure»</text><!--entity TodosView--><ellipse cx="110.5" cy="28.6406" fill="#FF7A7A" filter="url(#fo9nyeu)" rx="8" ry="8" style="stroke: #7A3A7A; stroke-width: 2.0;"/><text fill="#333333" font-family="sans-serif" font-size="14" lengthAdjust="spacingAndGlyphs" textLength="76" x="72.5" y="50.6357">TodosView</text><text fill="#555555" font-family="sans-serif" font-size="10" font-style="italic" lengthAdjust="spacingAndGlyphs" textLength="47" x="87" y="17.2822">«Impure»</text><!--entity TodoView--><ellipse cx="110.5" cy="134.6406" fill="#7AFFFF" filter="url(#fo9nyeu)" rx="8" ry="8" style="stroke: #7A3A7A; stroke-width: 2.0;"/><text fill="#333333" font-family="sans-serif" font-size="14" lengthAdjust="spacingAndGlyphs" textLength="68" x="76.5" y="156.6357">TodoView</text><text fill="#555555" font-family="sans-serif" font-size="10" font-style="italic" lengthAdjust="spacingAndGlyphs" textLength="34" x="93.5" y="123.2822">«Pure»</text><!--entity Input--><ellipse cx="23.5" cy="134.6406" fill="#7AFFFF" filter="url(#fo9nyeu)" rx="8" ry="8" style="stroke: #7A3A7A; stroke-width: 2.0;"/><text fill="#333333" font-family="sans-serif" font-size="14" lengthAdjust="spacingAndGlyphs" textLength="35" x="6" y="156.6357">Input</text><text fill="#555555" font-family="sans-serif" font-size="10" font-style="italic" lengthAdjust="spacingAndGlyphs" textLength="34" x="6.5" y="123.2822">«Pure»</text><!--entity Button--><ellipse cx="214.5" cy="240.6406" fill="#7AFFFF" filter="url(#fo9nyeu)" rx="8" ry="8" style="stroke: #7A3A7A; stroke-width: 2.0;"/><text fill="#333333" font-family="sans-serif" font-size="14" lengthAdjust="spacingAndGlyphs" textLength="47" x="191" y="262.6357">Button</text><text fill="#555555" font-family="sans-serif" font-size="10" font-style="italic" lengthAdjust="spacingAndGlyphs" textLength="34" x="197.5" y="229.2822">«Pure»</text><!--entity OkButton--><ellipse cx="212.5" cy="134.6406" fill="#FF7A7A" filter="url(#fo9nyeu)" rx="8" ry="8" style="stroke: #7A3A7A; stroke-width: 2.0;"/><text fill="#333333" font-family="sans-serif" font-size="14" lengthAdjust="spacingAndGlyphs" textLength="66" x="179.5" y="156.6357">OkButton</text><text fill="#555555" font-family="sans-serif" font-size="10" font-style="italic" lengthAdjust="spacingAndGlyphs" textLength="47" x="189" y="123.2822">«Impure»</text><!--entity CancelButton--><ellipse cx="108.5" cy="240.6406" fill="#FF7A7A" filter="url(#fo9nyeu)" rx="8" ry="8" style="stroke: #7A3A7A; stroke-width: 2.0;"/><text fill="#333333" font-family="sans-serif" font-size="14" lengthAdjust="spacingAndGlyphs" textLength="94" x="61.5" y="262.6357">CancelButton</text><text fill="#555555" font-family="sans-serif" font-size="10" font-style="italic" lengthAdjust="spacingAndGlyphs" textLength="47" x="85" y="229.2822">«Impure»</text><path d="M213.023,165.192 C213.351,182.2616 213.769,203.9891 214.076,219.9761 " fill="none" style="stroke: #7A7A7A; stroke-width: 1.0;"/><polygon fill="#7A7A7A" points="212.924,160.056,209.097,169.1309,213.0197,165.0551,217.0956,168.9778,212.924,160.056" style="stroke: #7A7A7A; stroke-width: 1.0;"/><path d="M160.885,243 C170.795,243 180.704,243 190.614,243 " fill="none" style="stroke: #7A7A7A; stroke-width: 1.0;"/><polygon fill="#7A7A7A" points="155.703,243,164.703,247,160.703,243,164.703,239,155.703,243" style="stroke: #7A7A7A; stroke-width: 1.0;"/><path d="M148.77,31 C158.668,31 168.566,31 178.465,31 " fill="none" style="stroke: #7A7A7A; stroke-width: 1.0;"/><polygon fill="#7A7A7A" points="183.641,31,174.641,27,178.641,31,174.641,35,183.641,31" style="stroke: #7A7A7A; stroke-width: 1.0;"/><path d="M110.5,59.192 C110.5,76.262 110.5,97.989 110.5,113.976 " fill="none" style="stroke: #7A7A7A; stroke-width: 1.0;"/><polygon fill="#7A7A7A" points="110.5,54.056,106.5,63.056,110.5,59.056,114.5,63.056,110.5,54.056" style="stroke: #7A7A7A; stroke-width: 1.0;"/><path d="M88.7862,57.957 C74.0442,75.579 54.802,98.581 41.0338,115.04 " fill="none" style="stroke: #7A7A7A; stroke-width: 1.0;"/><polygon fill="#7A7A7A" points="92.0495,54.056,83.2065,58.392,88.8411,57.8908,89.3422,63.5254,92.0495,54.056" style="stroke: #7A7A7A; stroke-width: 1.0;"/><path d="M135.88,57.877 C152.804,75.134 174.815,97.576 190.9,113.976 " fill="none" style="stroke: #7A7A7A; stroke-width: 1.0;"/><polygon fill="#7A7A7A" points="132.132,54.056,135.5782,63.2822,135.6331,57.6257,141.2897,57.6805,132.132,54.056" style="stroke: #7A7A7A; stroke-width: 1.0;"/><path d="M41.1719,137 C51.1652,137 61.1584,137 71.1517,137 " fill="none" style="stroke: #7A7A7A; stroke-width: 1.0;"/><polygon fill="#7A7A7A" points="76.3776,137,67.3776,133,71.3776,137,67.3776,141,76.3776,137" style="stroke: #7A7A7A; stroke-width: 1.0;"/><path d="M149.911,137 C159.749,137 169.588,137 179.427,137 " fill="none" style="stroke: #7A7A7A; stroke-width: 1.0;"/><polygon fill="#7A7A7A" points="144.766,137,153.766,141,149.766,137,153.766,133,144.766,137" style="stroke: #7A7A7A; stroke-width: 1.0;"/><path d="M109.977,165.192 C109.649,182.2616 109.231,203.9891 108.924,219.9761 " fill="none" style="stroke: #7A7A7A; stroke-width: 1.0;"/><polygon fill="#7A7A7A" points="110.076,160.056,105.9044,168.9778,109.9803,165.0551,113.903,169.1309,110.076,160.056" style="stroke: #7A7A7A; stroke-width: 1.0;"/></g></svg>