<?xml version="1.0" encoding="UTF-8" standalone="no"?><svg xmlns="http://www.w3.org/2000/svg" xmlns:xlink="http://www.w3.org/1999/xlink" contentScriptType="application/ecmascript" contentStyleType="text/css" height="227px" preserveAspectRatio="none" style="width:181px;height:227px;" version="1.1" viewBox="0 0 181 227" width="181px" zoomAndPan="magnify"><defs><filter height="300%" id="f0jql29" width="300%" x="-1" y="-1"><feGaussianBlur result="blurOut" stdDeviation="2.0"/><feColorMatrix in="blurOut" result="blurOut2" type="matrix" values="0 0 0 0 0 0 0 0 0 0 0 0 0 0 0 0 0 0 .4 0"/><feOffset dx="4.0" dy="4.0" in="blurOut2" result="blurOut3"/><feBlend in="SourceGraphic" in2="blurOut3" mode="normal"/></filter></defs><g><!--entity Model--><ellipse cx="111" cy="17" fill="#77FF77" filter="url(#f0jql29)" rx="8" ry="8" style="stroke: #7A3A7A; stroke-width: 2.0;"/><text fill="#333333" font-family="sans-serif" font-size="14" lengthAdjust="spacingAndGlyphs" textLength="42" x="90" y="38.9951">Model</text><!--entity Redux--><ellipse cx="28" cy="205" fill="#FEFECE" filter="url(#f0jql29)" rx="8" ry="8" style="stroke: #7A3A7A; stroke-width: 2.0;"/><text fill="#333333" font-family="sans-serif" font-size="14" lengthAdjust="spacingAndGlyphs" textLength="44" x="6" y="226.9951">Redux</text><!--entity RxJS--><ellipse cx="158" cy="205" fill="#FEFECE" filter="url(#f0jql29)" rx="8" ry="8" style="stroke: #7A3A7A; stroke-width: 2.0;"/><text fill="#333333" font-family="sans-serif" font-size="14" lengthAdjust="spacingAndGlyphs" textLength="29" x="143.5" y="226.9951">RxJS</text><!--entity Component--><ellipse cx="111" cy="111" fill="#FF7777" filter="url(#f0jql29)" rx="8" ry="8" style="stroke: #7A3A7A; stroke-width: 2.0;"/><text fill="#333333" font-family="sans-serif" font-size="14" lengthAdjust="spacingAndGlyphs" textLength="82" x="70" y="132.9951">Component</text><path d="M91.4396,45.954 C78.3703,60.388 61.832,80.978 52,102 C37.3428,133.3391 31.4807,173.9268 29.2585,195.9926 " fill="none" style="stroke: #7A7A7A; stroke-width: 1.0;"/><polygon fill="#7A7A7A" points="95.0253,42.051,85.9908,45.9724,91.6426,45.733,91.882,51.3848,95.0253,42.051" style="stroke: #7A7A7A; stroke-width: 1.0;"/><path d="M132.553,45.931 C146.181,60.075 162.577,80.334 170,102 C180.958,133.9855 171.177,173.9831 163.994,195.858 " fill="none" style="stroke: #7A7A7A; stroke-width: 1.0;"/><polygon fill="#7A7A7A" points="128.793,42.108,132.2504,51.3301,132.2984,45.6734,137.9551,45.7214,128.793,42.108" style="stroke: #7A7A7A; stroke-width: 1.0;"/><path d="M121.563,101.85 C125.121,86.598 125.446,63.64 122.54,46.979 " fill="none" style="stroke: #7A7A7A; stroke-width: 1.0;"/><polygon fill="#7A7A7A" points="121.534,42.025,119.4037,51.6407,122.5283,46.9251,127.2439,50.0498,121.534,42.025" style="stroke: #7A7A7A; stroke-width: 1.0;"/><path d="M101.0515,42.025 C97.6747,57.235 97.3506,80.188 100.0791,96.885 " fill="none" style="stroke: #7A7A7A; stroke-width: 1.0;"/><polygon fill="#7A7A7A" points="101.0239,101.85,103.2717,92.2611,100.0896,96.9381,95.4126,93.756,101.0239,101.85" style="stroke: #7A7A7A; stroke-width: 1.0;"/><path d="M96.5425,136.0252 C82.5842,151.497 61.3966,174.982 46.2758,191.7425 " fill="none" style="stroke: #7A7A7A; stroke-width: 1.0; stroke-dasharray: 7.0,7.0;"/><polygon fill="#7A7A7A" points="42.5703,195.8498,51.5691,191.847,45.9197,192.1374,45.6293,186.488,42.5703,195.8498" style="stroke: #7A7A7A; stroke-width: 1.0;"/><path d="M119.187,136.0252 C127.024,151.3659 138.886,174.5846 147.433,191.3149 " fill="none" style="stroke: #7A7A7A; stroke-width: 1.0; stroke-dasharray: 7.0,7.0;"/><polygon fill="#7A7A7A" points="149.749,195.8498,149.2168,186.0153,147.4744,191.3971,142.0926,189.6547,149.749,195.8498" style="stroke: #7A7A7A; stroke-width: 1.0;"/></g></svg>