<?xml version="1.0" encoding="UTF-8" standalone="no"?><svg xmlns="http://www.w3.org/2000/svg" xmlns:xlink="http://www.w3.org/1999/xlink" contentScriptType="application/ecmascript" contentStyleType="text/css" height="157px" preserveAspectRatio="none" style="width:155px;height:157px;" version="1.1" viewBox="0 0 155 157" width="155px" zoomAndPan="magnify"><defs><filter height="300%" id="fpgdkvk" width="300%" x="-1" y="-1"><feGaussianBlur result="blurOut" stdDeviation="2.0"/><feColorMatrix in="blurOut" result="blurOut2" type="matrix" values="0 0 0 0 0 0 0 0 0 0 0 0 0 0 0 0 0 0 .4 0"/><feOffset dx="4.0" dy="4.0" in="blurOut2" result="blurOut3"/><feBlend in="SourceGraphic" in2="blurOut3" mode="normal"/></filter></defs><g><!--entity Model--><ellipse cx="131.5" cy="134.6406" fill="#7AFF7F" filter="url(#fpgdkvk)" rx="8" ry="8" style="stroke: #7A3A7A; stroke-width: 2.0;"/><text fill="#333333" font-family="sans-serif" font-size="14" lengthAdjust="spacingAndGlyphs" textLength="42" x="110.5" y="156.6357">Model</text><text fill="#555555" font-family="sans-serif" font-size="10" font-style="italic" lengthAdjust="spacingAndGlyphs" textLength="46" x="108.5" y="123.2822">«Source»</text><!--entity View--><ellipse cx="85.5" cy="28.6406" fill="#FF7A7A" filter="url(#fpgdkvk)" rx="8" ry="8" style="stroke: #7A3A7A; stroke-width: 2.0;"/><text fill="#333333" font-family="sans-serif" font-size="14" lengthAdjust="spacingAndGlyphs" textLength="32" x="69.5" y="50.6357">View</text><text fill="#555555" font-family="sans-serif" font-size="10" font-style="italic" lengthAdjust="spacingAndGlyphs" textLength="69" x="51" y="17.2822">«Component»</text><!--entity Controller--><ellipse cx="39.5" cy="134.6406" fill="#FF7AFF" filter="url(#fpgdkvk)" rx="8" ry="8" style="stroke: #7A3A7A; stroke-width: 2.0;"/><text fill="#333333" font-family="sans-serif" font-size="14" lengthAdjust="spacingAndGlyphs" textLength="67" x="6" y="156.6357">Controller</text><text fill="#555555" font-family="sans-serif" font-size="10" font-style="italic" lengthAdjust="spacingAndGlyphs" textLength="44" x="17.5" y="123.2822">«Action»</text><path d="M97.3325,58.752 C104.9114,75.8866 114.627,97.8513 121.759,113.9761 " fill="none" style="stroke: #7A7A7A; stroke-width: 1.0;"/><polygon fill="#7A7A7A" points="95.2554,54.056,95.2359,63.9048,97.277,58.6291,102.5528,60.6702,95.2554,54.056" style="stroke: #7A7A7A; stroke-width: 1.0;"/><path d="M73.6675,58.752 C66.0886,75.8866 56.3735,97.8513 49.2414,113.9761 " fill="none" style="stroke: #7A7A7A; stroke-width: 1.0;"/><polygon fill="#7A7A7A" points="75.7446,54.056,68.4472,60.6702,73.723,58.6291,75.7641,63.9048,75.7446,54.056" style="stroke: #7A7A7A; stroke-width: 1.0;"/><path d="M78.4799,137 C88.4211,137 98.3623,137 108.303,137 " fill="none" style="stroke: #7A7A7A; stroke-width: 1.0;"/><polygon fill="#7A7A7A" points="73.2812,137,82.2812,141,78.2812,137,82.2812,133,73.2812,137" style="stroke: #7A7A7A; stroke-width: 1.0;"/></g></svg>