<?xml version="1.0" encoding="UTF-8" standalone="no"?><svg xmlns="http://www.w3.org/2000/svg" xmlns:xlink="http://www.w3.org/1999/xlink" contentScriptType="application/ecmascript" contentStyleType="text/css" height="198px" preserveAspectRatio="none" style="width:233px;height:198px;" version="1.1" viewBox="0 0 233 198" width="233px" zoomAndPan="magnify"><defs><filter height="300%" id="f10rgzw" width="300%" x="-1" y="-1"><feGaussianBlur result="blurOut" stdDeviation="2.0"/><feColorMatrix in="blurOut" result="blurOut2" type="matrix" values="0 0 0 0 0 0 0 0 0 0 0 0 0 0 0 0 0 0 .4 0"/><feOffset dx="4.0" dy="4.0" in="blurOut2" result="blurOut3"/><feBlend in="SourceGraphic" in2="blurOut3" mode="normal"/></filter></defs><g><rect fill="#FF7A7A" filter="url(#f10rgzw)" height="60.8906" style="stroke: #7A3A7A; stroke-width: 1.5;" width="86" x="17.5" y="8"/><text fill="#000033" font-family="sans-serif" font-size="10" font-style="italic" lengthAdjust="spacingAndGlyphs" textLength="47" x="37" y="17.2822">«Impure»</text><text fill="#333333" font-family="sans-serif" font-size="12" lengthAdjust="spacingAndGlyphs" textLength="52" x="34.5" y="32.7793">AppView</text><line style="stroke: #7A3A7A; stroke-width: 1.5;" x1="18.5" x2="102.5" y1="37.6094" y2="37.6094"/><text fill="#000000" font-family="sans-serif" font-size="10" lengthAdjust="spacingAndGlyphs" textLength="68" x="23.5" y="50.8916">todos: string[]</text><text fill="#000000" font-family="sans-serif" font-size="10" lengthAdjust="spacingAndGlyphs" textLength="74" x="23.5" y="62.5322">userId: number</text><rect fill="#7AFFFF" filter="url(#f10rgzw)" height="60.8906" style="stroke: #7A3A7A; stroke-width: 1.5;" width="86" x="138.5" y="8"/><text fill="#000033" font-family="sans-serif" font-size="10" font-style="italic" lengthAdjust="spacingAndGlyphs" textLength="34" x="164.5" y="17.2822">«Pure»</text><text fill="#333333" font-family="sans-serif" font-size="12" lengthAdjust="spacingAndGlyphs" textLength="66" x="148.5" y="32.7793">TodosView</text><line style="stroke: #7A3A7A; stroke-width: 1.5;" x1="139.5" x2="223.5" y1="37.6094" y2="37.6094"/><text fill="#000000" font-family="sans-serif" font-size="10" lengthAdjust="spacingAndGlyphs" textLength="68" x="144.5" y="50.8916">todos: string[]</text><text fill="#000000" font-family="sans-serif" font-size="10" lengthAdjust="spacingAndGlyphs" textLength="74" x="144.5" y="62.5322">userId: number</text><rect fill="#7AFFFF" filter="url(#f10rgzw)" height="60.8906" style="stroke: #7A3A7A; stroke-width: 1.5;" width="86" x="138.5" y="129"/><text fill="#000033" font-family="sans-serif" font-size="10" font-style="italic" lengthAdjust="spacingAndGlyphs" textLength="34" x="164.5" y="138.2822">«Pure»</text><text fill="#333333" font-family="sans-serif" font-size="12" lengthAdjust="spacingAndGlyphs" textLength="59" x="152" y="153.7793">TodoView</text><line style="stroke: #7A3A7A; stroke-width: 1.5;" x1="139.5" x2="223.5" y1="158.6094" y2="158.6094"/><text fill="#000000" font-family="sans-serif" font-size="10" lengthAdjust="spacingAndGlyphs" textLength="51" x="144.5" y="171.8916">title: string</text><text fill="#000000" font-family="sans-serif" font-size="10" lengthAdjust="spacingAndGlyphs" textLength="74" x="144.5" y="183.5322">userId: number</text><rect fill="#7AFFFF" filter="url(#f10rgzw)" height="60.8906" style="stroke: #7A3A7A; stroke-width: 1.5;" width="97" x="6" y="129"/><text fill="#000033" font-family="sans-serif" font-size="10" font-style="italic" lengthAdjust="spacingAndGlyphs" textLength="34" x="37.5" y="138.2822">«Pure»</text><text fill="#333333" font-family="sans-serif" font-size="12" lengthAdjust="spacingAndGlyphs" textLength="83" x="13" y="153.7793">TodoEditView</text><line style="stroke: #7A3A7A; stroke-width: 1.5;" x1="7" x2="102" y1="158.6094" y2="158.6094"/><text fill="#000000" font-family="sans-serif" font-size="10" lengthAdjust="spacingAndGlyphs" textLength="51" x="12" y="171.8916">title: string</text><text fill="#000000" font-family="sans-serif" font-size="10" lengthAdjust="spacingAndGlyphs" textLength="74" x="12" y="183.5322">userId: number</text><path d="M103.5117,38.5 C113.37,38.5 123.228,38.5 133.086,38.5 " fill="none" style="stroke: #7A7A7A; stroke-width: 1.0;"/><polygon fill="#7A7A7A" points="138.241,38.5,129.241,34.5,133.241,38.5,129.241,42.5,138.241,38.5" style="stroke: #7A7A7A; stroke-width: 1.0;"/><path d="M181.5,69.222 C181.5,85.692 181.5,106.2642 181.5,123.5082 " fill="none" style="stroke: #7A7A7A; stroke-width: 1.0;"/><polygon fill="#7A7A7A" points="181.5,128.7447,185.5,119.7447,181.5,123.7447,177.5,119.7447,181.5,128.7447" style="stroke: #7A7A7A; stroke-width: 1.0;"/><path d="M108.344,159.5 C118.339,159.5 128.333,159.5 138.328,159.5 " fill="none" style="stroke: #7A7A7A; stroke-width: 1.0;"/><polygon fill="#7A7A7A" points="103.1172,159.5,112.1172,163.5,108.1172,159.5,112.1172,155.5,103.1172,159.5" style="stroke: #7A7A7A; stroke-width: 1.0;"/></g></svg>