<?xml version="1.0" encoding="UTF-8" standalone="no"?><svg xmlns="http://www.w3.org/2000/svg" xmlns:xlink="http://www.w3.org/1999/xlink" contentScriptType="application/ecmascript" contentStyleType="text/css" height="157px" preserveAspectRatio="none" style="width:358px;height:157px;" version="1.1" viewBox="0 0 358 157" width="358px" zoomAndPan="magnify"><defs><filter height="300%" id="fwqejlj" width="300%" x="-1" y="-1"><feGaussianBlur result="blurOut" stdDeviation="2.0"/><feColorMatrix in="blurOut" result="blurOut2" type="matrix" values="0 0 0 0 0 0 0 0 0 0 0 0 0 0 0 0 0 0 .4 0"/><feOffset dx="4.0" dy="4.0" in="blurOut2" result="blurOut3"/><feBlend in="SourceGraphic" in2="blurOut3" mode="normal"/></filter></defs><g><!--entity Model--><ellipse cx="189.5" cy="134.6406" fill="#7AFF7F" filter="url(#fwqejlj)" rx="8" ry="8" style="stroke: #7A3A7A; stroke-width: 2.0;"/><text fill="#333333" font-family="sans-serif" font-size="14" lengthAdjust="spacingAndGlyphs" textLength="42" x="168.5" y="156.6357">Model</text><text fill="#555555" font-family="sans-serif" font-size="10" font-style="italic" lengthAdjust="spacingAndGlyphs" textLength="46" x="166.5" y="123.2822">«Source»</text><!--entity View--><ellipse cx="189.5" cy="28.6406" fill="#FF7A7A" filter="url(#fwqejlj)" rx="8" ry="8" style="stroke: #7A3A7A; stroke-width: 2.0;"/><text fill="#333333" font-family="sans-serif" font-size="14" lengthAdjust="spacingAndGlyphs" textLength="32" x="173.5" y="50.6357">View</text><text fill="#555555" font-family="sans-serif" font-size="10" font-style="italic" lengthAdjust="spacingAndGlyphs" textLength="69" x="155" y="17.2822">«Component»</text><!--entity ActionController--><ellipse cx="302.5" cy="134.6406" fill="#FF7AFF" filter="url(#fwqejlj)" rx="8" ry="8" style="stroke: #7A3A7A; stroke-width: 2.0;"/><text fill="#333333" font-family="sans-serif" font-size="14" lengthAdjust="spacingAndGlyphs" textLength="110" x="247.5" y="156.6357">ActionController</text><text fill="#555555" font-family="sans-serif" font-size="10" font-style="italic" lengthAdjust="spacingAndGlyphs" textLength="44" x="280.5" y="123.2822">«Action»</text><!--entity LifecycleController--><ellipse cx="68.5" cy="134.6406" fill="#7AFFFF" filter="url(#fwqejlj)" rx="8" ry="8" style="stroke: #7A3A7A; stroke-width: 2.0;"/><text fill="#333333" font-family="sans-serif" font-size="14" lengthAdjust="spacingAndGlyphs" textLength="125" x="6" y="156.6357">LifecycleController</text><text fill="#555555" font-family="sans-serif" font-size="10" font-style="italic" lengthAdjust="spacingAndGlyphs" textLength="38" x="49.5" y="123.2822">«Hook»</text><path d="M159.898,57.443 C139.755,74.7564 113.366,97.4379 94.124,113.9761 " fill="none" style="stroke: #7A7A7A; stroke-width: 1.0; stroke-dasharray: 7.0,7.0;"/><polygon fill="#7A7A7A" points="163.839,54.056,154.4069,56.8907,160.0478,57.3158,159.6226,62.9567,163.839,54.056" style="stroke: #7A7A7A; stroke-width: 1.0;"/><path d="M189.5,59.192 C189.5,76.2616 189.5,97.9891 189.5,113.9761 " fill="none" style="stroke: #7A7A7A; stroke-width: 1.0;"/><polygon fill="#7A7A7A" points="189.5,54.056,185.5,63.056,189.5,59.056,193.5,63.056,189.5,54.056" style="stroke: #7A7A7A; stroke-width: 1.0;"/><path d="M217.145,57.443 C235.956,74.7564 260.601,97.4379 278.57,113.9761 " fill="none" style="stroke: #7A7A7A; stroke-width: 1.0;"/><polygon fill="#7A7A7A" points="213.464,54.056,217.3754,63.0949,217.1422,57.4428,222.7943,57.2097,213.464,54.056" style="stroke: #7A7A7A; stroke-width: 1.0;"/><path d="M212.895,137 C222.631,137 232.368,137 242.105,137 " fill="none" style="stroke: #7A7A7A; stroke-width: 1.0;"/><polygon fill="#7A7A7A" points="247.197,137,238.197,133,242.197,137,238.197,141,247.197,137" style="stroke: #7A7A7A; stroke-width: 1.0;"/><path d="M136.555,137 C146.482,137 156.409,137 166.336,137 " fill="none" style="stroke: #7A7A7A; stroke-width: 1.0;"/><polygon fill="#7A7A7A" points="131.363,137,140.363,141,136.363,137,140.363,133,131.363,137" style="stroke: #7A7A7A; stroke-width: 1.0;"/></g></svg>