<?xml version="1.0" encoding="UTF-8" standalone="no"?>
<!-- Created with Inkscape (http://www.inkscape.org/) -->

<svg
   xmlns:dc="http://purl.org/dc/elements/1.1/"
   xmlns:cc="http://creativecommons.org/ns#"
   xmlns:rdf="http://www.w3.org/1999/02/22-rdf-syntax-ns#"
   xmlns:svg="http://www.w3.org/2000/svg"
   xmlns="http://www.w3.org/2000/svg"
   xmlns:sodipodi="http://sodipodi.sourceforge.net/DTD/sodipodi-0.dtd"
   xmlns:inkscape="http://www.inkscape.org/namespaces/inkscape"
   width="204.34093mm"
   height="69.577065mm"
   viewBox="0 0 724.04266 246.5329"
   id="svg2"
   version="1.1"
   inkscape:version="0.91 r13725"
   sodipodi:docname="couple.svg">
  <defs
     id="defs4" />
  <sodipodi:namedview
     id="base"
     pagecolor="#ffffff"
     bordercolor="#666666"
     borderopacity="1.0"
     inkscape:pageopacity="0.0"
     inkscape:pageshadow="2"
     inkscape:zoom="1"
     inkscape:cx="305.29139"
     inkscape:cy="294.19743"
     inkscape:document-units="px"
     inkscape:current-layer="layer1"
     showgrid="false"
     showguides="false"
     inkscape:window-width="1600"
     inkscape:window-height="867"
     inkscape:window-x="0"
     inkscape:window-y="33"
     inkscape:window-maximized="1"
     fit-margin-top="0"
     fit-margin-left="0"
     fit-margin-right="0"
     fit-margin-bottom="0" />
  <metadata
     id="metadata7">
    <rdf:RDF>
      <cc:Work
         rdf:about="">
        <dc:format>image/svg+xml</dc:format>
        <dc:type
           rdf:resource="http://purl.org/dc/dcmitype/StillImage" />
        <dc:title></dc:title>
      </cc:Work>
    </rdf:RDF>
  </metadata>
  <g
     inkscape:label="Layer 1"
     inkscape:groupmode="layer"
     id="layer1"
     transform="translate(-11.216808,-141.40516)">
    <text
       xml:space="preserve"
       style="font-style:normal;font-weight:normal;font-size:40px;line-height:125%;font-family:sans-serif;letter-spacing:0px;word-spacing:0px;fill:#000000;fill-opacity:1;stroke:none;stroke-width:1px;stroke-linecap:butt;stroke-linejoin:miter;stroke-opacity:1"
       x="24"
       y="257.36221"
       id="text3348"
       sodipodi:linespacing="125%"><tspan
         sodipodi:role="line"
         id="tspan3350"
         x="24"
         y="257.36221" /></text>
    <text
       xml:space="preserve"
       style="font-style:normal;font-weight:normal;font-size:40px;line-height:125%;font-family:sans-serif;letter-spacing:0px;word-spacing:0px;fill:#000000;fill-opacity:1;stroke:none;stroke-width:1px;stroke-linecap:butt;stroke-linejoin:miter;stroke-opacity:1"
       x="643"
       y="79.362206"
       id="text3352"
       sodipodi:linespacing="125%"><tspan
         sodipodi:role="line"
         id="tspan3354"
         x="643"
         y="79.362206" /></text>
    <path
       sodipodi:type="star"
       style="fill:#ffffff;fill-rule:evenodd;stroke:#000000;stroke-width:2;stroke-linecap:butt;stroke-linejoin:miter;stroke-miterlimit:4;stroke-dasharray:none;stroke-opacity:1"
       id="path3342"
       sodipodi:sides="3"
       sodipodi:cx="389.41806"
       sodipodi:cy="344.70651"
       sodipodi:r1="83.97422"
       sodipodi:r2="41.312691"
       sodipodi:arg1="0.52662727"
       sodipodi:arg2="1.5110316"
       inkscape:flatsided="false"
       inkscape:rounded="0"
       inkscape:randomized="0"
       d="m 462.01438,386.91367 -70.12875,-0.96823 -75.3182,0.52775 35.90288,-60.24916 37.20207,-65.49135 34.22586,61.21739 z"
       inkscape:transform-center-x="2.109259"
       inkscape:transform-center-y="-19.478319" />
    <rect
       style="fill:#ffffff;fill-rule:evenodd;stroke:#000000;stroke-width:2;stroke-linecap:butt;stroke-linejoin:miter;stroke-miterlimit:4;stroke-dasharray:none;stroke-opacity:1"
       id="rect3346"
       width="742"
       height="17"
       x="-667.39771"
       y="-343.49002"
       ry="0"
       transform="matrix(-0.96592583,0.25881905,-0.25881905,-0.96592583,0,0)" />
    <g
       style="font-style:normal;font-weight:normal;font-size:17.5px;line-height:125%;font-family:sans-serif;letter-spacing:0px;word-spacing:0px;fill:#000000;fill-opacity:1;stroke:none;stroke-width:1px;stroke-linecap:butt;stroke-linejoin:miter;stroke-opacity:1"
       id="text3356">
      <path
         d="m 452.34521,259.13712 0,18.22509 -2.46582,0 0,-16.1499 -8.95996,0 0,16.1499 -2.46582,0 0,-18.22509 13.8916,0 z"
         style="font-size:25px"
         id="path4399" />
      <path
         d="m 468.84912,269.96475 0,1.09864 -10.32715,0 q 0.14649,2.31933 1.3916,3.54003 1.25733,1.2085 3.49122,1.2085 1.29394,0 2.50244,-0.31738 1.2207,-0.31739 2.41699,-0.95215 l 0,2.12402 q -1.2085,0.5127 -2.47803,0.78125 -1.26953,0.26856 -2.57568,0.26856 -3.27149,0 -5.18799,-1.9043 -1.9043,-1.9043 -1.9043,-5.15137 0,-3.35693 1.80664,-5.32226 1.81885,-1.97754 4.89502,-1.97754 2.75879,0 4.35791,1.78222 1.61133,1.77002 1.61133,4.82178 z m -2.24609,-0.65918 q -0.0244,-1.84326 -1.0376,-2.94189 -1.00098,-1.09863 -2.66113,-1.09863 -1.87989,0 -3.01514,1.06201 -1.12305,1.06201 -1.29395,2.99072 l 8.00782,-0.0122 z"
         style="font-size:25px"
         id="path4401" />
      <path
         d="m 474.7085,275.31143 0,7.25098 -2.2583,0 0,-18.87207 2.2583,0 0,2.07519 q 0.708,-1.2207 1.78222,-1.80664 1.08643,-0.59814 2.58789,-0.59814 2.49024,0 4.04053,1.97754 1.5625,1.97754 1.5625,5.20019 0,3.22266 -1.5625,5.2002 -1.55029,1.97754 -4.04053,1.97754 -1.50146,0 -2.58789,-0.58594 -1.07422,-0.59814 -1.78222,-1.81885 z m 7.6416,-4.77295 q 0,-2.47802 -1.02539,-3.88183 -1.01319,-1.41602 -2.79541,-1.41602 -1.78223,0 -2.80762,1.41602 -1.01318,1.40381 -1.01318,3.88183 0,2.47803 1.01318,3.89405 1.02539,1.4038 2.80762,1.4038 1.78222,0 2.79541,-1.4038 1.02539,-1.41602 1.02539,-3.89405 z"
         style="font-size:25px"
         id="path4403" />
      <path
         d="m 500.09912,269.96475 0,1.09864 -10.32715,0 q 0.14649,2.31933 1.3916,3.54003 1.25733,1.2085 3.49122,1.2085 1.29394,0 2.50244,-0.31738 1.2207,-0.31739 2.41699,-0.95215 l 0,2.12402 q -1.2085,0.5127 -2.47803,0.78125 -1.26953,0.26856 -2.57568,0.26856 -3.27149,0 -5.18799,-1.9043 -1.9043,-1.9043 -1.9043,-5.15137 0,-3.35693 1.80664,-5.32226 1.81885,-1.97754 4.89502,-1.97754 2.75879,0 4.35791,1.78222 1.61133,1.77002 1.61133,4.82178 z m -2.24609,-0.65918 q -0.0244,-1.84326 -1.0376,-2.94189 -1.00098,-1.09863 -2.66113,-1.09863 -1.87989,0 -3.01514,1.06201 -1.12305,1.06201 -1.29395,2.99072 l 8.00782,-0.0122 z"
         style="font-size:25px"
         id="path4405" />
      <path
         d="m 515.40674,263.69034 0,13.67187 -2.23389,0 0,-10.97412 -6.5918,10.97412 -2.88085,0 0,-13.67187 2.23388,0 0,10.94971 6.57959,-10.94971 2.89307,0 z"
         style="font-size:25px"
         id="path4407" />
      <path
         d="m 529.88428,264.21524 0,2.09961 q -0.95215,-0.5249 -1.91651,-0.78125 -0.95215,-0.26855 -1.92871,-0.26855 -2.18506,0 -3.39355,1.3916 -1.2085,1.37939 -1.2085,3.88183 0,2.50244 1.2085,3.89405 1.20849,1.37939 3.39355,1.37939 0.97656,0 1.92871,-0.25635 0.96436,-0.26855 1.91651,-0.79345 l 0,2.07519 q -0.93994,0.43945 -1.95313,0.65918 -1.00097,0.21973 -2.13623,0.21973 -3.08838,0 -4.90722,-1.94092 -1.81885,-1.94092 -1.81885,-5.23682 0,-3.34472 1.83105,-5.26123 1.84326,-1.9165 5.04151,-1.9165 1.03759,0 2.02636,0.21972 0.98877,0.20752 1.91651,0.63477 z"
         style="font-size:25px"
         id="path4409" />
      <path
         d="m 545.53369,263.69034 0,13.67187 -2.2583,0 0,-11.87744 -7.2876,0 0,11.87744 -2.2583,0 0,-13.67187 11.8042,0 z"
         style="font-size:25px"
         id="path4411" />
      <path
         d="m 555.47021,265.26505 q -1.80664,0 -2.85644,1.41601 -1.04981,1.40381 -1.04981,3.85742 0,2.45362 1.0376,3.86963 1.04981,1.40381 2.86865,1.40381 1.79444,0 2.84424,-1.41602 1.04981,-1.41601 1.04981,-3.85742 0,-2.4292 -1.04981,-3.84521 -1.0498,-1.42822 -2.84424,-1.42822 z m 0,-1.9043 q 2.92969,0 4.60206,1.9043 1.67236,1.90429 1.67236,5.27343 0,3.35694 -1.67236,5.27344 -1.67237,1.9043 -4.60206,1.9043 -2.94189,0 -4.61425,-1.9043 -1.66016,-1.9165 -1.66016,-5.27344 0,-3.36914 1.66016,-5.27343 1.67236,-1.9043 4.61425,-1.9043 z"
         style="font-size:25px"
         id="path4413" />
      <path
         d="m 564.02734,277.36221 0,-1.86767 q 2.22168,-0.3418 2.90528,-1.87989 0.83008,-2.16064 0.83008,-7.69043 l 0,-2.23388 9.24072,0 0,13.67187 -2.2461,0 0,-11.87744 -4.74853,0 0,1.35498 q 0,5.27344 -1.07422,7.6416 -1.14746,2.52686 -4.90723,2.88086 z"
         style="font-size:25px"
         id="path4415" />
      <path
         d="m 589.93066,273.30948 q 0,-1.09863 -0.80566,-1.67236 -0.79346,-0.57373 -2.33154,-0.57373 l -3.19825,0 0,4.50439 3.19825,0 q 1.53808,0 2.33154,-0.57373 0.80566,-0.58594 0.80566,-1.68457 z m -8.59375,-9.61914 2.2583,0 0,5.57861 3.2959,0 q 2.61231,0 4.01612,1.00098 1.41601,0.98877 1.41601,3.03955 0,2.05078 -1.41601,3.05176 -1.40381,1.00097 -4.01612,1.00097 l -5.5542,0 0,-13.67187 z"
         style="font-size:25px"
         id="path4417" />
      <path
         d="m 602.43066,269.98917 q 1.51368,0.29297 2.35596,1.18408 0.84229,0.89111 0.84229,2.20947 0,2.11182 -1.57471,3.22266 -1.57471,1.11084 -4.47998,1.11084 -0.97656,0 -2.01416,-0.1709 -1.02539,-0.1709 -2.12402,-0.5127 l 0,-2.0874 q 0.86669,0.45166 1.90429,0.68359 1.0376,0.21973 2.17285,0.21973 1.84327,0 2.86866,-0.68359 1.03759,-0.6836 1.03759,-1.78223 0,-1.07422 -0.91552,-1.72119 -0.91553,-0.65918 -2.58789,-0.65918 l -1.80665,0 0,-1.85547 1.89209,0 q 1.41602,0 2.23389,-0.53711 0.83008,-0.54931 0.83008,-1.40381 0,-0.78125 -0.85449,-1.34277 -0.84229,-0.56152 -2.29492,-0.56152 -0.8667,0 -1.85547,0.15869 -0.97657,0.15869 -2.16065,0.51269 l 0,-2.03857 q 1.19629,-0.29297 2.23389,-0.43945 1.0376,-0.14649 1.96533,-0.14649 2.39258,0 3.77197,0.96436 1.39161,0.95215 1.39161,2.67334 0,1.13525 -0.73243,1.92871 -0.73242,0.78125 -2.09961,1.07422 z"
         style="font-size:25px"
         id="path4419" />
      <path
         d="m 614.74756,265.26505 q -1.80664,0 -2.85645,1.41601 -1.0498,1.40381 -1.0498,3.85742 0,2.45362 1.0376,3.86963 1.0498,1.40381 2.86865,1.40381 1.79443,0 2.84424,-1.41602 1.0498,-1.41601 1.0498,-3.85742 0,-2.4292 -1.0498,-3.84521 -1.04981,-1.42822 -2.84424,-1.42822 z m 0,-1.9043 q 2.92969,0 4.60205,1.9043 1.67236,1.90429 1.67236,5.27343 0,3.35694 -1.67236,5.27344 -1.67236,1.9043 -4.60205,1.9043 -2.9419,0 -4.61426,-1.9043 -1.66016,-1.9165 -1.66016,-5.27344 0,-3.36914 1.66016,-5.27343 1.67236,-1.9043 4.61426,-1.9043 z"
         style="font-size:25px"
         id="path4421" />
      <path
         d="m 626.89355,271.06339 0,4.50439 3.19825,0 q 1.53808,0 2.34375,-0.57373 0.80566,-0.58594 0.80566,-1.68457 0,-1.09863 -0.80566,-1.67236 -0.80567,-0.57373 -2.34375,-0.57373 l -3.19825,0 z m 0,-5.57862 0,3.78418 2.95411,0 q 1.26953,0 2.07519,-0.50049 0.80567,-0.51269 0.80567,-1.41601 0,-0.90332 -0.80567,-1.3794 -0.80566,-0.48828 -2.07519,-0.48828 l -2.95411,0 z m -2.24609,-1.79443 5.34668,0 q 2.40479,0 3.69873,0.8789 1.29395,0.87891 1.29395,2.50245 0,1.25732 -0.65918,2.00195 -0.65918,0.73242 -1.95313,0.91553 1.55029,0.29297 2.40479,1.2207 0.85449,0.92773 0.85449,2.31934 0,1.83105 -1.41602,2.83203 -1.40381,1.00097 -4.01611,1.00097 l -5.5542,0 0,-13.67187 z"
         style="font-size:25px"
         id="path4423" />
      <path
         d="m 645.69238,270.48965 q -2.72217,0 -3.77197,0.62256 -1.0498,0.62256 -1.0498,2.12403 0,1.19629 0.78125,1.90429 0.79345,0.6958 2.14843,0.6958 1.86768,0 2.99073,-1.31836 1.13525,-1.33056 1.13525,-3.52783 l 0,-0.50049 -2.23389,0 z m 4.47998,-0.92773 0,7.80029 -2.24609,0 0,-2.07519 q -0.76904,1.24512 -1.9165,1.84326 -1.14747,0.58594 -2.80762,0.58594 -2.09961,0 -3.34473,-1.17188 -1.23291,-1.18408 -1.23291,-3.16162 0,-2.30713 1.53809,-3.479 1.55029,-1.17188 4.61426,-1.17188 l 3.14941,0 0,-0.21972 q 0,-1.5503 -1.02539,-2.39258 -1.01318,-0.85449 -2.85645,-0.85449 -1.17187,0 -2.28271,0.28076 -1.11084,0.28076 -2.13623,0.84228 l 0,-2.07519 q 1.23291,-0.47608 2.39258,-0.70801 1.15966,-0.24414 2.2583,-0.24414 2.96631,0 4.43115,1.53808 1.46484,1.53809 1.46484,4.66309 z"
         style="font-size:25px"
         id="path4425" />
      <path
         d="m 654.72559,263.69034 2.2583,0 0,5.57861 7.28759,0 0,-5.57861 2.25831,0 0,13.67187 -2.25831,0 0,-6.29882 -7.28759,0 0,6.29882 -2.2583,0 0,-13.67187 z"
         style="font-size:25px"
         id="path4427" />
      <path
         d="m 682.78955,263.69034 0,13.67187 -2.23389,0 0,-10.97412 -6.59179,10.97412 -2.88086,0 0,-13.67187 2.23388,0 0,10.94971 6.57959,-10.94971 2.89307,0 z"
         style="font-size:25px"
         id="path4429" />
      <path
         d="m 699.12256,269.96475 0,1.09864 -10.32715,0 q 0.14648,2.31933 1.3916,3.54003 1.25733,1.2085 3.49121,1.2085 1.29395,0 2.50244,-0.31738 1.22071,-0.31739 2.417,-0.95215 l 0,2.12402 q -1.2085,0.5127 -2.47803,0.78125 -1.26953,0.26856 -2.57568,0.26856 -3.27149,0 -5.18799,-1.9043 -1.9043,-1.9043 -1.9043,-5.15137 0,-3.35693 1.80664,-5.32226 1.81885,-1.97754 4.89502,-1.97754 2.75879,0 4.35791,1.78222 1.61133,1.77002 1.61133,4.82178 z m -2.2461,-0.65918 q -0.0244,-1.84326 -1.03759,-2.94189 -1.00098,-1.09863 -2.66114,-1.09863 -1.87988,0 -3.01513,1.06201 -1.12305,1.06201 -1.29395,2.99072 l 8.00781,-0.0122 z"
         style="font-size:25px"
         id="path4431" />
    </g>
    <g
       style="font-style:normal;font-weight:normal;font-size:17.5px;line-height:125%;font-family:sans-serif;letter-spacing:0px;word-spacing:0px;fill:#000000;fill-opacity:1;stroke:none;stroke-width:1px;stroke-linecap:butt;stroke-linejoin:miter;stroke-opacity:1"
       id="text3356-3"
       transform="translate(0,-6)">
      <path
         d="m 62.20752,214.66519 q -0.256348,0.61035 -0.646973,1.07422 -0.964356,1.13525 -4.02832,1.13525 l -0.939942,0 0,-2.07519 0.769043,0 q 1.452637,0 2.01416,-0.32959 0.341797,-0.20752 0.561524,-0.72022 l 0.549316,-1.29394 -5.847168,-13.80615 2.648926,0 4.528809,10.69336 4.553222,-10.69336 2.648926,0 -6.811523,16.01562 z"
         style="font-size:25px"
         id="path4309"
         inkscape:connector-curvature="0" />
      <path
         d="m 74.854004,215.08023 6.518555,0 0,-10.08301 -4.724122,0 0,1.70899 q 0,5.02929 -1.440429,7.71484 l -0.354004,0.65918 z m -3.259277,0 q 1.110839,-0.48828 1.599121,-1.52588 1.196289,-2.57568 1.196289,-7.76367 l 0,-2.58789 9.240722,0 0,11.87744 1.794434,0 0,5.24902 -1.794434,0 0,-3.45459 -11.083984,0 0,3.45459 -1.794434,0 0,-5.24902 0.842286,0 z"
         style="font-size:25px"
         id="path4311"
         inkscape:connector-curvature="0" />
      <path
         d="m 94.385254,204.7775 q -1.806641,0 -2.856445,1.41601 -1.049805,1.40381 -1.049805,3.85742 0,2.45362 1.037598,3.86963 1.049804,1.40381 2.868652,1.40381 1.794433,0 2.844238,-1.41601 1.049805,-1.41602 1.049805,-3.85743 0,-2.4292 -1.049805,-3.84521 -1.049805,-1.42822 -2.844238,-1.42822 z m 0,-1.9043 q 2.929687,0 4.602051,1.9043 1.672365,1.90429 1.672365,5.27343 0,3.35694 -1.672365,5.27344 -1.672364,1.9043 -4.602051,1.9043 -2.941895,0 -4.614258,-1.9043 -1.660156,-1.9165 -1.660156,-5.27344 0,-3.36914 1.660156,-5.27343 1.672363,-1.9043 4.614258,-1.9043 z"
         style="font-size:25px"
         id="path4313"
         inkscape:connector-curvature="0" />
      <path
         d="m 109.79053,202.8732 q 2.92968,0 4.60205,1.9043 1.67236,1.90429 1.67236,5.27343 0,3.35694 -1.67236,5.27344 -1.67237,1.9043 -4.60205,1.9043 -2.9419,0 -4.56543,-1.85547 -1.62354,-1.85547 -1.70899,-5.32227 l -0.0732,-2.79541 q -0.061,-1.45263 -0.061,-1.95312 0,-1.95313 0.708,-3.39356 1.11084,-2.2583 3.02735,-3.23486 1.92871,-0.97656 5.15136,-1.00098 1.48926,-0.0122 2.14844,-0.21972 l 0.62256,1.78222 q -0.59814,0.24414 -1.14746,0.25635 l -3.05176,0.20752 q -1.53808,0.10986 -2.46582,0.64697 -2.4292,1.42823 -2.66113,3.2959 l -0.0854,0.6836 q 1.58691,-1.45264 4.1626,-1.45264 z m 0,1.9043 q -1.80664,0 -2.85645,1.41601 -1.0498,1.40381 -1.0498,3.85742 0,2.45362 1.0376,3.86963 1.0498,1.40381 2.86865,1.40381 1.79443,0 2.84424,-1.41601 1.0498,-1.41602 1.0498,-3.85743 0,-2.4292 -1.0498,-3.84521 -1.04981,-1.42822 -2.84424,-1.42822 z"
         style="font-size:25px"
         id="path4315"
         inkscape:connector-curvature="0" />
      <path
         d="m 129.63916,203.72769 0,2.09961 q -0.95215,-0.5249 -1.9165,-0.78125 -0.95215,-0.26855 -1.92871,-0.26855 -2.18506,0 -3.39356,1.3916 -1.2085,1.37939 -1.2085,3.88183 0,2.50245 1.2085,3.89405 1.2085,1.37939 3.39356,1.37939 0.97656,0 1.92871,-0.25635 0.96435,-0.26855 1.9165,-0.79345 l 0,2.07519 q -0.93994,0.43946 -1.95312,0.65918 -1.00098,0.21973 -2.13624,0.21973 -3.08837,0 -4.90722,-1.94092 -1.81885,-1.94092 -1.81885,-5.23682 0,-3.34472 1.83106,-5.26123 1.84326,-1.9165 5.0415,-1.9165 1.0376,0 2.02637,0.21973 0.98877,0.20752 1.9165,0.63476 z"
         style="font-size:25px"
         id="path4317"
         inkscape:connector-curvature="0" />
      <path
         d="m 131.94629,203.20279 13.09814,0 0,1.79443 -5.44433,0 0,11.87744 -2.20948,0 0,-11.87744 -5.44433,0 0,-1.79443 z"
         style="font-size:25px"
         id="path4319"
         inkscape:connector-curvature="0" />
      <path
         d="m 150.28125,210.57584 0,4.50439 3.19824,0 q 1.53809,0 2.34375,-0.57373 0.80567,-0.58594 0.80567,-1.68457 0,-1.09863 -0.80567,-1.67236 -0.80566,-0.57373 -2.34375,-0.57373 l -3.19824,0 z m 0,-5.57862 0,3.78418 2.9541,0 q 1.26953,0 2.0752,-0.50049 0.80566,-0.51269 0.80566,-1.41601 0,-0.90332 -0.80566,-1.3794 -0.80567,-0.48828 -2.0752,-0.48828 l -2.9541,0 z m -2.24609,-1.79443 5.34668,0 q 2.40478,0 3.69873,0.87891 1.29394,0.8789 1.29394,2.50244 0,1.25732 -0.65918,2.00195 -0.65918,0.73242 -1.95312,0.91553 1.55029,0.29297 2.40478,1.2207 0.85449,0.92773 0.85449,2.31934 0,1.83105 -1.41601,2.83203 -1.40381,1.00097 -4.01611,1.00097 l -5.5542,0 0,-13.67187 z"
         style="font-size:25px"
         id="path4321"
         inkscape:connector-curvature="0" />
      <path
         d="m 168.16455,204.7775 q -1.80664,0 -2.85644,1.41601 -1.04981,1.40381 -1.04981,3.85742 0,2.45362 1.0376,3.86963 1.0498,1.40381 2.86865,1.40381 1.79443,0 2.84424,-1.41601 1.0498,-1.41602 1.0498,-3.85743 0,-2.4292 -1.0498,-3.84521 -1.04981,-1.42822 -2.84424,-1.42822 z m 0,-1.9043 q 2.92969,0 4.60205,1.9043 1.67236,1.90429 1.67236,5.27343 0,3.35694 -1.67236,5.27344 -1.67236,1.9043 -4.60205,1.9043 -2.94189,0 -4.61426,-1.9043 -1.66015,-1.9165 -1.66015,-5.27344 0,-3.36914 1.66015,-5.27343 1.67237,-1.9043 4.61426,-1.9043 z"
         style="font-size:25px"
         id="path4323"
         inkscape:connector-curvature="0" />
      <path
         d="m 188.28174,214.82388 0,7.25098 -2.2583,0 0,-18.87207 2.2583,0 0,2.07519 q 0.70801,-1.2207 1.78222,-1.80664 1.08643,-0.59814 2.5879,-0.59814 2.49023,0 4.04052,1.97754 1.5625,1.97754 1.5625,5.20019 0,3.22266 -1.5625,5.2002 -1.55029,1.97754 -4.04052,1.97754 -1.50147,0 -2.5879,-0.58594 -1.07421,-0.59814 -1.78222,-1.81885 z m 7.6416,-4.77295 q 0,-2.47802 -1.02539,-3.88183 -1.01318,-1.41602 -2.79541,-1.41602 -1.78223,0 -2.80762,1.41602 -1.01318,1.40381 -1.01318,3.88183 0,2.47803 1.01318,3.89405 1.02539,1.40381 2.80762,1.40381 1.78223,0 2.79541,-1.40381 1.02539,-1.41602 1.02539,-3.89405 z"
         style="font-size:25px"
         id="path4325"
         inkscape:connector-curvature="0" />
      <path
         d="m 213.67236,209.4772 0,1.09864 -10.32715,0 q 0.14649,2.31933 1.39161,3.54004 1.25732,1.20849 3.49121,1.20849 1.29394,0 2.50244,-0.31738 1.2207,-0.31738 2.41699,-0.95215 l 0,2.12402 q -1.2085,0.5127 -2.47803,0.78125 -1.26953,0.26856 -2.57568,0.26856 -3.27148,0 -5.18799,-1.9043 -1.9043,-1.9043 -1.9043,-5.15137 0,-3.35693 1.80665,-5.32226 1.81884,-1.97754 4.89501,-1.97754 2.75879,0 4.35792,1.78223 1.61132,1.77002 1.61132,4.82177 z m -2.24609,-0.65918 q -0.0244,-1.84326 -1.0376,-2.94189 -1.00097,-1.09863 -2.66113,-1.09863 -1.87988,0 -3.01514,1.06201 -1.12304,1.06201 -1.29394,2.99072 l 8.00781,-0.0122 z"
         style="font-size:25px"
         id="path4327"
         inkscape:connector-curvature="0" />
      <path
         d="m 218.70166,210.05093 q 0,2.86866 0.87891,4.08936 0.89111,1.2085 2.39257,1.2085 1.19629,0 2.5879,-2.05079 l 0,-6.49414 q -1.39161,-2.05078 -2.5879,-2.05078 -1.50146,0 -2.39257,1.22071 -0.87891,1.20849 -0.87891,4.07714 z m 5.85938,12.02393 0,-6.9458 q -0.69581,1.14746 -1.50147,1.62353 -0.79346,0.47608 -1.80664,0.47608 -2.03857,0 -3.4668,-1.87988 -1.41601,-1.89209 -1.41601,-5.24903 0,-3.35693 1.41601,-5.28564 1.42823,-1.94092 3.4668,-1.94092 1.01318,0 1.80664,0.46387 0.80566,0.46386 1.50147,1.61132 l 0,-6.29882 2.2583,0 0,6.29882 q 0.6958,-1.14746 1.48925,-1.61132 0.80567,-0.46387 1.81885,-0.46387 2.03858,0 3.45459,1.94092 1.42822,1.92871 1.42822,5.28564 0,3.35694 -1.42822,5.24903 -1.41601,1.87988 -3.45459,1.87988 -1.01318,0 -1.81885,-0.47608 -0.79345,-0.47607 -1.48925,-1.62353 l 0,6.9458 -2.2583,0 z m 8.11767,-12.02393 q 0,-2.86865 -0.89111,-4.07714 -0.87891,-1.22071 -2.38037,-1.22071 -1.19629,0 -2.58789,2.05078 l 0,6.49414 q 1.3916,2.05079 2.58789,2.05079 1.50146,0 2.38037,-1.2085 0.89111,-1.2207 0.89111,-4.08936 z"
         style="font-size:25px"
         id="path4329"
         inkscape:connector-curvature="0" />
      <path
         d="m 244.95898,210.00211 q -2.72216,0 -3.77197,0.62255 -1.0498,0.62256 -1.0498,2.12403 0,1.19629 0.78125,1.90429 0.79345,0.69581 2.14843,0.69581 1.86768,0 2.99073,-1.31836 1.13525,-1.33057 1.13525,-3.52784 l 0,-0.50048 -2.23389,0 z m 4.47998,-0.92774 0,7.80029 -2.24609,0 0,-2.07519 q -0.76904,1.24512 -1.9165,1.84326 -1.14746,0.58594 -2.80762,0.58594 -2.09961,0 -3.34473,-1.17188 -1.23291,-1.18408 -1.23291,-3.16162 0,-2.30713 1.53809,-3.479 1.55029,-1.17188 4.61426,-1.17188 l 3.14941,0 0,-0.21972 q 0,-1.5503 -1.02539,-2.39258 -1.01318,-0.85449 -2.85644,-0.85449 -1.17188,0 -2.28272,0.28076 -1.11084,0.28076 -2.13623,0.84228 l 0,-2.07519 q 1.23291,-0.47608 2.39258,-0.70801 1.15967,-0.24414 2.2583,-0.24414 2.96631,0 4.43115,1.53809 1.46484,1.53808 1.46484,4.66308 z"
         style="font-size:25px"
         id="path4331"
         inkscape:connector-curvature="0" />
      <path
         d="m 253.99219,203.20279 2.23388,0 0,6.4209 6.33545,-6.4209 2.75879,0 -5.22461,5.28564 5.896,8.38623 -2.51465,0 -4.84619,-6.89697 -2.40479,2.44141 0,4.45556 -2.23388,0 0,-13.67187 z"
         style="font-size:25px"
         id="path4333"
         inkscape:connector-curvature="0" />
      <path
         d="m 267.54199,203.20279 13.09815,0 0,1.79443 -5.44434,0 0,11.87744 -2.20947,0 0,-11.87744 -5.44434,0 0,-1.79443 z"
         style="font-size:25px"
         id="path4335"
         inkscape:connector-curvature="0" />
      <path
         d="m 289.01416,204.7775 q -1.80664,0 -2.85645,1.41601 -1.0498,1.40381 -1.0498,3.85742 0,2.45362 1.0376,3.86963 1.0498,1.40381 2.86865,1.40381 1.79443,0 2.84424,-1.41601 1.0498,-1.41602 1.0498,-3.85743 0,-2.4292 -1.0498,-3.84521 -1.04981,-1.42822 -2.84424,-1.42822 z m 0,-1.9043 q 2.92969,0 4.60205,1.9043 1.67236,1.90429 1.67236,5.27343 0,3.35694 -1.67236,5.27344 -1.67236,1.9043 -4.60205,1.9043 -2.94189,0 -4.61426,-1.9043 -1.66015,-1.9165 -1.66015,-5.27344 0,-3.36914 1.66015,-5.27343 1.67237,-1.9043 4.61426,-1.9043 z"
         style="font-size:25px"
         id="path4337"
         inkscape:connector-curvature="0" />
      <path
         d="m 301.17236,214.82388 0,7.25098 -2.2583,0 0,-18.87207 2.2583,0 0,2.07519 q 0.70801,-1.2207 1.78223,-1.80664 1.08643,-0.59814 2.58789,-0.59814 2.49023,0 4.04053,1.97754 1.5625,1.97754 1.5625,5.20019 0,3.22266 -1.5625,5.2002 -1.5503,1.97754 -4.04053,1.97754 -1.50146,0 -2.58789,-0.58594 -1.07422,-0.59814 -1.78223,-1.81885 z m 7.6416,-4.77295 q 0,-2.47802 -1.02539,-3.88183 -1.01318,-1.41602 -2.79541,-1.41602 -1.78222,0 -2.80761,1.41602 -1.01319,1.40381 -1.01319,3.88183 0,2.47803 1.01319,3.89405 1.02539,1.40381 2.80761,1.40381 1.78223,0 2.79541,-1.40381 1.02539,-1.41602 1.02539,-3.89405 z"
         style="font-size:25px"
         id="path4339"
         inkscape:connector-curvature="0" />
      <path
         d="m 326.48975,203.20279 0,13.67187 -2.23389,0 0,-10.97412 -6.5918,10.97412 -2.88086,0 0,-13.67187 2.23389,0 0,10.94971 6.57959,-10.94971 2.89307,0 z"
         style="font-size:25px"
         id="path4341"
         inkscape:connector-curvature="0" />
      <path
         d="m 331.04297,203.20279 2.2583,0 0,5.57861 7.2876,0 0,-5.57861 2.2583,0 0,13.67187 -2.2583,0 0,-6.29882 -7.2876,0 0,6.29882 -2.2583,0 0,-13.67187 z"
         style="font-size:25px"
         id="path4343"
         inkscape:connector-curvature="0" />
      <path
         d="m 347.40039,216.87466 0,-13.67187 9.64356,0 0,1.79443 -7.38526,0 0,11.87744 -2.2583,0 z"
         style="font-size:25px"
         id="path4345"
         inkscape:connector-curvature="0" />
      <path
         d="m 366.83398,210.00211 q -2.72216,0 -3.77197,0.62255 -1.0498,0.62256 -1.0498,2.12403 0,1.19629 0.78125,1.90429 0.79345,0.69581 2.14843,0.69581 1.86768,0 2.99073,-1.31836 1.13525,-1.33057 1.13525,-3.52784 l 0,-0.50048 -2.23389,0 z m 4.47998,-0.92774 0,7.80029 -2.24609,0 0,-2.07519 q -0.76904,1.24512 -1.9165,1.84326 -1.14746,0.58594 -2.80762,0.58594 -2.09961,0 -3.34473,-1.17188 -1.23291,-1.18408 -1.23291,-3.16162 0,-2.30713 1.53809,-3.479 1.55029,-1.17188 4.61426,-1.17188 l 3.14941,0 0,-0.21972 q 0,-1.5503 -1.02539,-2.39258 -1.01318,-0.85449 -2.85644,-0.85449 -1.17188,0 -2.28272,0.28076 -1.11084,0.28076 -2.13623,0.84228 l 0,-2.07519 q 1.23291,-0.47608 2.39258,-0.70801 1.15967,-0.24414 2.2583,-0.24414 2.96631,0 4.43115,1.53809 1.46484,1.53808 1.46484,4.66308 z"
         style="font-size:25px"
         id="path4347"
         inkscape:connector-curvature="0" />
    </g>
    <path
       inkscape:connector-curvature="0"
       style="fill:none;stroke:#000000;stroke-width:2;stroke-miterlimit:4;stroke-dasharray:none"
       d="m 720.33008,238.61328 0,81.19336 -7.26172,0.19141 5.29297,11.71875 5.55078,11.53125 5.42187,-11.62696 5.16407,-11.81054 -7.16797,-0.0625 0,-81.13477 -7,0 z"
       id="rect3386" />
    <path
       style="fill:none;stroke:#000000;stroke-width:2;stroke-miterlimit:4;stroke-dasharray:none"
       d="m 30.130859,162.10352 -5.550781,11.52929 -5.294922,11.72071 7.263672,0.18945 0,81.19336 7,0 0,-81.13477 7.167969,-0.0605 -5.164063,-11.8125 -5.421875,-11.625 z"
       id="rect3386-5"
       inkscape:connector-curvature="0" />
    <g
       style="font-style:normal;font-weight:normal;font-size:17.5px;line-height:125%;font-family:sans-serif;letter-spacing:0px;word-spacing:0px;fill:#000000;fill-opacity:1;stroke:none;stroke-width:1px;stroke-linecap:butt;stroke-linejoin:miter;stroke-opacity:1"
       id="text3423"
       transform="translate(0,-6)">
      <path
         d="m 58.426025,236.0834 q -1.145019,1.96534 -1.700439,3.88794 -0.55542,1.92261 -0.55542,3.89649 0,1.97388 0.55542,3.91357 0.563965,1.93115 1.700439,3.88794 l -1.367187,0 q -1.281738,-2.00805 -1.922608,-3.94775 -0.632324,-1.9397 -0.632324,-3.85376 0,-1.90552 0.632324,-3.83667 0.632325,-1.93115 1.922608,-3.94776 l 1.367187,0 z"
         id="path4350"
         inkscape:connector-curvature="0" />
      <path
         d="m 71.106689,237.58731 0,1.82007 q -0.871582,-0.81177 -1.862793,-1.21338 -0.982666,-0.40161 -2.093505,-0.40161 -2.1875,0 -3.34961,1.34155 -1.162109,1.33301 -1.162109,3.86231 0,2.52075 1.162109,3.8623 1.16211,1.33301 3.34961,1.33301 1.110839,0 2.093505,-0.40161 0.991211,-0.40161 1.862793,-1.21338 l 0,1.80298 q -0.905761,0.61523 -1.922607,0.92285 -1.008301,0.30762 -2.13623,0.30762 -2.896729,0 -4.562989,-1.7688 -1.666259,-1.77735 -1.666259,-4.84497 0,-3.07618 1.666259,-4.84497 1.66626,-1.77735 4.562989,-1.77735 1.145019,0 2.15332,0.30762 1.016846,0.29907 1.905517,0.90576 z"
         id="path4352"
         inkscape:connector-curvature="0" />
      <path
         d="m 72.72168,249.36221 0,-1.30737 q 1.555175,-0.23926 2.033691,-1.31592 0.581055,-1.51245 0.581055,-5.3833 l 0,-1.56372 6.468506,0 0,9.57031 -1.572266,0 0,-8.31421 -3.323975,0 0,0.94849 q 0,3.69141 -0.751953,5.34912 -0.803222,1.7688 -3.435058,2.0166 z"
         id="path4354"
         inkscape:connector-curvature="0" />
      <path
         d="m 89.247559,244.55142 q -1.905518,0 -2.640381,0.43579 -0.734864,0.43579 -0.734864,1.48682 0,0.8374 0.546875,1.33301 0.55542,0.48706 1.503907,0.48706 1.307373,0 2.093506,-0.92285 0.794677,-0.9314 0.794677,-2.46949 l 0,-0.35034 -1.56372,0 z m 3.135986,-0.64941 0,5.4602 -1.572266,0 0,-1.45263 q -0.53833,0.87158 -1.341552,1.29028 -0.803223,0.41016 -1.965332,0.41016 -1.469727,0 -2.341309,-0.82032 -0.863037,-0.82885 -0.863037,-2.21313 0,-1.61499 1.07666,-2.4353 1.085205,-0.82032 3.22998,-0.82032 l 2.20459,0 0,-0.15381 q 0,-1.0852 -0.717773,-1.6748 -0.709229,-0.59814 -1.999512,-0.59814 -0.820312,0 -1.5979,0.19653 -0.777588,0.19653 -1.495362,0.5896 l 0,-1.45264 q 0.863038,-0.33325 1.674805,-0.4956 0.811768,-0.1709 1.580811,-0.1709 2.076416,0 3.101806,1.07666 1.025391,1.07666 1.025391,3.26416 z"
         id="path4356"
         inkscape:connector-curvature="0" />
      <path
         d="m 99.424561,239.56119 q 2.050779,0 3.221439,1.33301 1.17065,1.333 1.17065,3.6914 0,2.34986 -1.17065,3.69141 -1.17066,1.33301 -3.221439,1.33301 -2.059327,0 -3.195801,-1.29883 -1.136475,-1.29883 -1.196289,-3.72559 l -0.05127,-1.95679 q -0.04272,-1.01684 -0.04272,-1.36718 0,-1.36719 0.495605,-2.37549 0.777588,-1.58081 2.119141,-2.26441 1.350097,-0.68359 3.605953,-0.70068 1.04248,-0.009 1.50391,-0.15381 l 0.43579,1.24756 q -0.4187,0.1709 -0.80323,0.17944 l -2.13623,0.14527 q -1.076652,0.0769 -1.726066,0.45288 -1.70044,0.99975 -1.862793,2.30713 l -0.05982,0.47851 q 1.11084,-1.01684 2.913819,-1.01684 z m 0,1.33301 q -1.264649,0 -1.999512,0.99121 -0.734863,0.98266 -0.734863,2.70019 0,1.71753 0.726318,2.70874 0.734863,0.98267 2.008057,0.98267 1.256099,0 1.990969,-0.99121 0.73486,-0.99121 0.73486,-2.7002 0,-1.70044 -0.73486,-2.69165 -0.73487,-0.99975 -1.990969,-0.99975 z"
         id="path4358"
         inkscape:connector-curvature="0" />
      <path
         d="m 110.13989,240.8942 q -1.26465,0 -1.99951,0.99121 -0.73486,0.98266 -0.73486,2.70019 0,1.71753 0.72632,2.70874 0.73486,0.98267 2.00805,0.98267 1.25611,0 1.99097,-0.99121 0.73486,-0.99121 0.73486,-2.7002 0,-1.70044 -0.73486,-2.69165 -0.73486,-0.99975 -1.99097,-0.99975 z m 0,-1.33301 q 2.05078,0 3.22144,1.33301 1.17065,1.333 1.17065,3.6914 0,2.34986 -1.17065,3.69141 -1.17066,1.33301 -3.22144,1.33301 -2.05932,0 -3.22998,-1.33301 -1.16211,-1.34155 -1.16211,-3.69141 0,-2.3584 1.16211,-3.6914 1.17066,-1.33301 3.22998,-1.33301 z"
         id="path4360"
         inkscape:connector-curvature="0" />
      <path
         d="m 125.31567,244.18399 0,0.76904 -7.229,0 q 0.10254,1.62354 0.97412,2.47803 0.88013,0.84595 2.44385,0.84595 0.90576,0 1.75171,-0.22217 0.85449,-0.22217 1.69189,-0.6665 l 0,1.48681 q -0.84595,0.35889 -1.73462,0.54688 -0.88867,0.18799 -1.80298,0.18799 -2.29003,0 -3.63159,-1.33301 -1.33301,-1.33301 -1.33301,-3.60596 0,-2.34985 1.26465,-3.72558 1.2732,-1.38428 3.42652,-1.38428 1.93115,0 3.05053,1.24756 1.12793,1.23901 1.12793,3.37524 z m -1.57226,-0.46143 q -0.0171,-1.29028 -0.72632,-2.05932 -0.70068,-0.76904 -1.86279,-0.76904 -1.31592,0 -2.1106,0.7434 -0.78613,0.74341 -0.90576,2.09351 l 5.60547,-0.009 z"
         id="path4362"
         inkscape:connector-curvature="0" />
      <path
         d="m 137.85107,244.20108 q 1.05957,0.20508 1.64917,0.82886 0.5896,0.62378 0.5896,1.54663 0,1.47827 -1.10229,2.25586 -1.1023,0.77759 -3.13599,0.77759 -0.68359,0 -1.40991,-0.11963 -0.71777,-0.11963 -1.48682,-0.35889 l 0,-1.46118 q 0.60669,0.31616 1.33301,0.47851 0.72632,0.15381 1.521,0.15381 1.29028,0 2.00805,-0.47851 0.72632,-0.47852 0.72632,-1.24756 0,-0.75195 -0.64087,-1.20484 -0.64087,-0.46142 -1.81152,-0.46142 l -1.26465,0 0,-1.29883 1.32446,0 q 0.99122,0 1.56373,-0.37598 0.58105,-0.38452 0.58105,-0.98266 0,-0.54688 -0.59814,-0.93994 -0.5896,-0.39307 -1.60645,-0.39307 -0.60669,0 -1.29883,0.11108 -0.68359,0.11109 -1.51245,0.35889 l 0,-1.427 q 0.8374,-0.20508 1.56372,-0.30762 0.72632,-0.10254 1.37573,-0.10254 1.67481,0 2.64038,0.67505 0.97413,0.66651 0.97413,1.87134 0,0.79468 -0.5127,1.3501 -0.51269,0.54687 -1.46973,0.75195 z"
         id="path4364"
         inkscape:connector-curvature="0" />
      <path
         d="m 147.11377,244.55142 q -1.90552,0 -2.64038,0.43579 -0.73486,0.43579 -0.73486,1.48682 0,0.8374 0.54687,1.33301 0.55542,0.48706 1.50391,0.48706 1.30737,0 2.0935,-0.92285 0.79468,-0.9314 0.79468,-2.46949 l 0,-0.35034 -1.56372,0 z m 3.13599,-0.64941 0,5.4602 -1.57227,0 0,-1.45263 q -0.53833,0.87158 -1.34155,1.29028 -0.80323,0.41016 -1.96533,0.41016 -1.46973,0 -2.34131,-0.82032 -0.86304,-0.82885 -0.86304,-2.21313 0,-1.61499 1.07666,-2.4353 1.0852,-0.82032 3.22998,-0.82032 l 2.20459,0 0,-0.15381 q 0,-1.0852 -0.71777,-1.6748 -0.70923,-0.59814 -1.99951,-0.59814 -0.82032,0 -1.59791,0.19653 -0.77758,0.19653 -1.49536,0.5896 l 0,-1.45264 q 0.86304,-0.33325 1.67481,-0.4956 0.81177,-0.1709 1.58081,-0.1709 2.07641,0 3.10181,1.07666 1.02539,1.07666 1.02539,3.26416 z"
         id="path4366"
         inkscape:connector-curvature="0" />
      <path
         d="m 161.69995,249.36221 -8.26294,0 0,-9.57031 1.58081,0 0,8.31421 5.10132,0 0,-8.31421 1.58081,0 0,8.31421 1.2561,0 0,3.67432 -1.2561,0 0,-2.41822 z"
         id="path4368"
         inkscape:connector-curvature="0" />
      <path
         d="m 173.61157,244.18399 0,0.76904 -7.229,0 q 0.10254,1.62354 0.97412,2.47803 0.88013,0.84595 2.44385,0.84595 0.90576,0 1.75171,-0.22217 0.85449,-0.22217 1.69189,-0.6665 l 0,1.48681 q -0.84595,0.35889 -1.73462,0.54688 -0.88867,0.18799 -1.80298,0.18799 -2.29004,0 -3.63159,-1.33301 -1.33301,-1.33301 -1.33301,-3.60596 0,-2.34985 1.26465,-3.72558 1.2732,-1.38428 3.42652,-1.38428 1.93115,0 3.05053,1.24756 1.12793,1.23901 1.12793,3.37524 z m -1.57226,-0.46143 q -0.0171,-1.29028 -0.72632,-2.05932 -0.70069,-0.76904 -1.86279,-0.76904 -1.31592,0 -2.1106,0.7434 -0.78613,0.74341 -0.90576,2.09351 l 5.60547,-0.009 z"
         id="path4370"
         inkscape:connector-curvature="0" />
      <path
         d="m 184.39526,239.7919 0,9.57031 -1.58081,0 0,-8.31421 -5.10132,0 0,8.31421 -1.58081,0 0,-9.57031 8.26294,0 z"
         id="path4372"
         inkscape:connector-curvature="0" />
      <path
         d="m 186.64258,249.36221 0,-1.30737 q 1.55517,-0.23926 2.03369,-1.31592 0.58105,-1.51245 0.58105,-5.3833 l 0,-1.56372 6.46851,0 0,9.57031 -1.57227,0 0,-8.31421 -3.32397,0 0,0.94849 q 0,3.69141 -0.75195,5.34912 -0.80323,1.7688 -3.43506,2.0166 z"
         id="path4374"
         inkscape:connector-curvature="0" />
      <path
         d="m 207.00513,244.18399 0,0.76904 -7.22901,0 q 0.10254,1.62354 0.97412,2.47803 0.88013,0.84595 2.44385,0.84595 0.90576,0 1.75171,-0.22217 0.85449,-0.22217 1.6919,-0.6665 l 0,1.48681 q -0.84595,0.35889 -1.73462,0.54688 -0.88868,0.18799 -1.80298,0.18799 -2.29004,0 -3.63159,-1.33301 -1.33301,-1.33301 -1.33301,-3.60596 0,-2.34985 1.26465,-3.72558 1.27319,-1.38428 3.42651,-1.38428 1.93115,0 3.05054,1.24756 1.12793,1.23901 1.12793,3.37524 z m -1.57227,-0.46143 q -0.0171,-1.29028 -0.72632,-2.05932 -0.70068,-0.76904 -1.86279,-0.76904 -1.31592,0 -2.1106,0.7434 -0.78613,0.74341 -0.90576,2.09351 l 5.60547,-0.009 z"
         id="path4376"
         inkscape:connector-curvature="0" />
      <path
         d="m 209.52588,239.7919 1.58081,0 0,3.90503 5.10132,0 0,-3.90503 1.58081,0 0,9.57031 -1.58081,0 0,-4.40918 -5.10132,0 0,4.40918 -1.58081,0 0,-9.57031 z"
         id="path4378"
         inkscape:connector-curvature="0" />
      <path
         d="m 229.17065,239.7919 0,9.57031 -1.56372,0 0,-7.68188 -4.61425,7.68188 -2.01661,0 0,-9.57031 1.56372,0 0,7.6648 4.60572,-7.6648 2.02514,0 z"
         id="path4380"
         inkscape:connector-curvature="0" />
      <path
         d="m 240.60376,244.18399 0,0.76904 -7.229,0 q 0.10253,1.62354 0.97412,2.47803 0.88012,0.84595 2.44384,0.84595 0.90577,0 1.75171,-0.22217 0.8545,-0.22217 1.6919,-0.6665 l 0,1.48681 q -0.84595,0.35889 -1.73462,0.54688 -0.88867,0.18799 -1.80298,0.18799 -2.29004,0 -3.63159,-1.33301 -1.33301,-1.33301 -1.33301,-3.60596 0,-2.34985 1.26465,-3.72558 1.27319,-1.38428 3.42651,-1.38428 1.93116,0 3.05054,1.24756 1.12793,1.23901 1.12793,3.37524 z m -1.57227,-0.46143 q -0.0171,-1.29028 -0.72631,-2.05932 -0.70069,-0.76904 -1.8628,-0.76904 -1.31592,0 -2.11059,0.7434 -0.78614,0.74341 -0.90576,2.09351 l 5.60546,-0.009 z"
         id="path4382"
         inkscape:connector-curvature="0" />
      <path
         d="m 243.58594,247.1918 1.80298,0 0,1.46973 -1.40137,2.73437 -1.1023,0 0.70069,-2.73437 0,-1.46973 z"
         id="path4384"
         inkscape:connector-curvature="0" />
      <path
         d="m 262.04297,237.02335 0,1.68335 q -0.98267,-0.46998 -1.85425,-0.70069 -0.87158,-0.23071 -1.68335,-0.23071 -1.40991,0 -2.17895,0.54687 -0.7605,0.54688 -0.7605,1.55518 0,0.84595 0.50415,1.28174 0.51269,0.42724 1.93115,0.69214 l 1.04248,0.21362 q 1.93115,0.36743 2.84546,1.29883 0.92285,0.92285 0.92285,2.47803 0,1.85424 -1.24756,2.81127 -1.23901,0.95704 -3.64013,0.95704 -0.90577,0 -1.93116,-0.20508 -1.01684,-0.20508 -2.11059,-0.60669 l 0,-1.77735 q 1.05102,0.5896 2.05932,0.88868 1.00831,0.29907 1.98243,0.29907 1.47827,0 2.28149,-0.58106 0.80322,-0.58105 0.80322,-1.65771 0,-0.93994 -0.58105,-1.46973 -0.57251,-0.52978 -1.88843,-0.79468 l -1.05102,-0.20507 q -1.93116,-0.38452 -2.79419,-1.20484 -0.86304,-0.82031 -0.86304,-2.28149 0,-1.6919 1.18774,-2.66602 1.19629,-0.97412 3.2898,-0.97412 0.89721,0 1.82861,0.16236 0.9314,0.16235 1.90552,0.48706 z"
         id="path4386"
         inkscape:connector-curvature="0" />
      <path
         d="m 272.88647,241.62906 q 0.5896,-1.05957 1.40992,-1.56372 0.82031,-0.50415 1.93115,-0.50415 1.49536,0 2.30713,1.05102 0.81177,1.04248 0.81177,2.97364 l 0,5.77636 -1.58082,0 0,-5.72509 q 0,-1.37574 -0.48706,-2.04224 -0.48706,-0.6665 -1.48681,-0.6665 -1.22193,0 -1.93115,0.81176 -0.70923,0.81177 -0.70923,2.21314 l 0,5.40893 -1.58081,0 0,-5.72509 q 0,-1.38428 -0.48706,-2.04224 -0.48706,-0.6665 -1.50391,-0.6665 -1.20483,0 -1.91406,0.82031 -0.70923,0.81177 -0.70923,2.20459 l 0,5.40893 -1.58081,0 0,-9.57031 1.58081,0 0,1.48682 q 0.53833,-0.88013 1.29028,-1.29883 0.75196,-0.4187 1.78589,-0.4187 1.04248,0 1.7688,0.52978 0.73486,0.52979 1.0852,1.53809 z"
         id="path4388"
         inkscape:connector-curvature="0" />
      <path
         d="m 286.84033,244.55142 q -1.90552,0 -2.64038,0.43579 -0.73486,0.43579 -0.73486,1.48682 0,0.8374 0.54687,1.33301 0.55542,0.48706 1.50391,0.48706 1.30737,0 2.0935,-0.92285 0.79468,-0.9314 0.79468,-2.46949 l 0,-0.35034 -1.56372,0 z m 3.13599,-0.64941 0,5.4602 -1.57227,0 0,-1.45263 q -0.53833,0.87158 -1.34155,1.29028 -0.80322,0.41016 -1.96533,0.41016 -1.46973,0 -2.34131,-0.82032 -0.86304,-0.82885 -0.86304,-2.21313 0,-1.61499 1.07666,-2.4353 1.08521,-0.82032 3.22998,-0.82032 l 2.20459,0 0,-0.15381 q 0,-1.0852 -0.71777,-1.6748 -0.70923,-0.59814 -1.99951,-0.59814 -0.82031,0 -1.5979,0.19653 -0.77759,0.19653 -1.49536,0.5896 l 0,-1.45264 q 0.86303,-0.33325 1.6748,-0.4956 0.81177,-0.1709 1.58081,-0.1709 2.07642,0 3.10181,1.07666 1.02539,1.07666 1.02539,3.26416 z"
         id="path4390"
         inkscape:connector-curvature="0" />
      <path
         d="m 298.76904,241.26163 q -0.26489,-0.15381 -0.58105,-0.22217 -0.30762,-0.0769 -0.6836,-0.0769 -1.333,0 -2.05078,0.87159 -0.70923,0.86303 -0.70923,2.48657 l 0,5.0415 -1.58081,0 0,-9.57031 1.58081,0 0,1.48682 q 0.49561,-0.87158 1.29029,-1.29029 0.79468,-0.42724 1.93115,-0.42724 0.16235,0 0.35889,0.0256 0.19653,0.0171 0.43579,0.0598 l 0.009,1.61499 z"
         id="path4392"
         inkscape:connector-curvature="0" />
      <path
         d="m 301.99048,237.07462 0,2.71728 3.23852,0 0,1.22192 -3.23852,0 0,5.19532 q 0,1.17065 0.31616,1.5039 0.32471,0.33326 1.30737,0.33326 l 1.61499,0 0,1.31591 -1.61499,0 q -1.82006,0 -2.5122,-0.67505 -0.69214,-0.68359 -0.69214,-2.47802 l 0,-5.19532 -1.15357,0 0,-1.22192 1.15357,0 0,-2.71728 1.58081,0 z"
         id="path4394"
         inkscape:connector-curvature="0" />
      <path
         d="m 307.05762,236.0834 1.36718,0 q 1.28174,2.01661 1.91407,3.94776 0.64087,1.93115 0.64087,3.83667 0,1.91406 -0.64087,3.85376 -0.63233,1.9397 -1.91407,3.94775 l -1.36718,0 q 1.13647,-1.95679 1.69189,-3.88794 0.56397,-1.93969 0.56397,-3.91357 0,-1.97388 -0.56397,-3.89649 -0.55542,-1.9226 -1.69189,-3.88794 z"
         id="path4396"
         inkscape:connector-curvature="0" />
    </g>
    <g
       style="font-style:normal;font-weight:normal;font-size:17.5px;line-height:125%;font-family:sans-serif;letter-spacing:0px;word-spacing:0px;fill:#000000;fill-opacity:1;stroke:none;stroke-width:1px;stroke-linecap:butt;stroke-linejoin:miter;stroke-opacity:1"
       id="text3423-5">
      <path
         d="m 441.74475,293.67175 q -1.14502,1.96533 -1.70044,3.88794 -0.55542,1.92261 -0.55542,3.89649 0,1.97387 0.55542,3.91357 0.56397,1.93115 1.70044,3.88794 l -1.36719,0 q -1.28173,-2.00806 -1.9226,-3.94775 -0.63233,-1.9397 -0.63233,-3.85376 0,-1.90552 0.63233,-3.83667 0.63232,-1.93116 1.9226,-3.94776 l 1.36719,0 z"
         style=""
         id="path4434" />
      <path
         d="m 454.42542,295.17566 0,1.82007 q -0.87159,-0.81177 -1.8628,-1.21338 -0.98266,-0.40161 -2.0935,-0.40161 -2.1875,0 -3.34961,1.34155 -1.16211,1.33301 -1.16211,3.8623 0,2.52076 1.16211,3.86231 1.16211,1.33301 3.34961,1.33301 1.11084,0 2.0935,-0.40161 0.99121,-0.40162 1.8628,-1.21338 l 0,1.80298 q -0.90577,0.61523 -1.92261,0.92285 -1.0083,0.30761 -2.13623,0.30761 -2.89673,0 -4.56299,-1.76879 -1.66626,-1.77735 -1.66626,-4.84498 0,-3.07617 1.66626,-4.84497 1.66626,-1.77734 4.56299,-1.77734 1.14502,0 2.15332,0.30762 1.01684,0.29907 1.90552,0.90576 z"
         style=""
         id="path4436" />
      <path
         d="m 465.17493,297.38025 0,9.57031 -1.56372,0 0,-7.68188 -4.61426,7.68188 -2.0166,0 0,-9.57031 1.56372,0 0,7.66479 4.60571,-7.66479 2.02515,0 z"
         style=""
         id="path4438" />
      <path
         d="m 467.42224,306.95056 0,-1.30737 q 1.55518,-0.23926 2.03369,-1.31592 0.58106,-1.51245 0.58106,-5.3833 l 0,-1.56372 6.4685,0 0,9.57031 -1.57226,0 0,-8.31421 -3.32398,0 0,0.94849 q 0,3.69141 -0.75195,5.34912 -0.80322,1.7688 -3.43506,2.0166 z"
         style=""
         id="path4440" />
      <path
         d="m 485.55457,304.11365 q 0,-0.76905 -0.56397,-1.17066 -0.55542,-0.40161 -1.63208,-0.40161 l -2.23877,0 0,3.15308 2.23877,0 q 1.07666,0 1.63208,-0.40161 0.56397,-0.41016 0.56397,-1.1792 z m -6.01563,-6.7334 1.58081,0 0,3.90503 2.30713,0 q 1.82861,0 2.81128,0.70068 0.99121,0.69214 0.99121,2.12769 0,1.43554 -0.99121,2.13623 -0.98267,0.70068 -2.81128,0.70068 l -3.88794,0 0,-9.57031 z"
         style=""
         id="path4442" />
      <path
         d="m 489.86121,297.38025 1.58081,0 0,3.90503 5.10131,0 0,-3.90503 1.58082,0 0,9.57031 -1.58082,0 0,-4.40918 -5.10131,0 0,4.40918 -1.58081,0 0,-9.57031 z"
         style=""
         id="path4444" />
      <path
         d="m 505.07971,298.48254 q -1.26465,0 -1.99951,0.99121 -0.73486,0.98267 -0.73486,2.7002 0,1.71753 0.72632,2.70874 0.73486,0.98267 2.00805,0.98267 1.25611,0 1.99097,-0.99121 0.73486,-0.99122 0.73486,-2.7002 0,-1.70044 -0.73486,-2.69165 -0.73486,-0.99976 -1.99097,-0.99976 z m 0,-1.333 q 2.05078,0 3.22144,1.333 1.17065,1.33301 1.17065,3.69141 0,2.34985 -1.17065,3.69141 -1.17066,1.333 -3.22144,1.333 -2.05932,0 -3.22998,-1.333 -1.16211,-1.34156 -1.16211,-3.69141 0,-2.3584 1.16211,-3.69141 1.17066,-1.333 3.22998,-1.333 z"
         style=""
         id="path4446" />
      <path
         d="m 520.25549,301.77234 0,0.76904 -7.229,0 q 0.10254,1.62354 0.97412,2.47803 0.88013,0.84595 2.44385,0.84595 0.90576,0 1.75171,-0.22217 0.85449,-0.22217 1.69189,-0.66651 l 0,1.48682 q -0.84595,0.35889 -1.73462,0.54688 -0.88867,0.18798 -1.80298,0.18798 -2.29004,0 -3.63159,-1.333 -1.33301,-1.33301 -1.33301,-3.60596 0,-2.34985 1.26465,-3.72559 1.2732,-1.38427 3.42652,-1.38427 1.93115,0 3.05053,1.24755 1.12793,1.23902 1.12793,3.37525 z m -1.57226,-0.46143 q -0.0171,-1.29028 -0.72632,-2.05932 -0.70068,-0.76905 -1.86279,-0.76905 -1.31592,0 -2.1106,0.74341 -0.78613,0.74341 -0.90576,2.09351 l 5.60547,-0.009 z"
         style=""
         id="path4448" />
      <path
         d="m 532.79089,301.78943 q 1.05957,0.20508 1.64917,0.82886 0.5896,0.62378 0.5896,1.54663 0,1.47827 -1.10229,2.25586 -1.1023,0.77758 -3.13599,0.77758 -0.68359,0 -1.40991,-0.11962 -0.71777,-0.11963 -1.48682,-0.35889 l 0,-1.46118 q 0.60669,0.31616 1.33301,0.47851 0.72632,0.15381 1.521,0.15381 1.29028,0 2.00805,-0.47851 0.72632,-0.47852 0.72632,-1.24756 0,-0.75196 -0.64087,-1.20484 -0.64087,-0.46142 -1.81152,-0.46142 l -1.26465,0 0,-1.29883 1.32446,0 q 0.99122,0 1.56372,-0.37598 0.58106,-0.38452 0.58106,-0.98266 0,-0.54688 -0.59815,-0.93994 -0.58959,-0.39307 -1.60644,-0.39307 -0.60669,0 -1.29883,0.11108 -0.68359,0.11109 -1.51245,0.35889 l 0,-1.427 q 0.8374,-0.20508 1.56372,-0.30762 0.72632,-0.10254 1.37573,-0.10254 1.67481,0 2.64038,0.67505 0.97413,0.6665 0.97413,1.87134 0,0.79468 -0.5127,1.3501 -0.5127,0.54687 -1.46973,0.75195 z"
         style=""
         id="path4450" />
      <path
         d="m 542.05359,302.13977 q -1.90552,0 -2.64038,0.43579 -0.73487,0.43579 -0.73487,1.48682 0,0.8374 0.54688,1.33301 0.55542,0.48706 1.50391,0.48706 1.30737,0 2.0935,-0.92286 0.79468,-0.93139 0.79468,-2.46948 l 0,-0.35034 -1.56372,0 z m 3.13599,-0.64941 0,5.4602 -1.57227,0 0,-1.45264 q -0.53833,0.87159 -1.34155,1.29029 -0.80323,0.41015 -1.96534,0.41015 -1.46972,0 -2.3413,-0.82031 -0.86304,-0.82886 -0.86304,-2.21313 0,-1.61499 1.07666,-2.43531 1.0852,-0.82031 3.22998,-0.82031 l 2.20459,0 0,-0.15381 q 0,-1.0852 -0.71777,-1.6748 -0.70923,-0.59815 -1.99952,-0.59815 -0.82031,0 -1.5979,0.19654 -0.77758,0.19653 -1.49536,0.5896 l 0,-1.45264 q 0.86304,-0.33325 1.67481,-0.49561 0.81176,-0.17089 1.58081,-0.17089 2.07641,0 3.1018,1.07666 1.0254,1.07666 1.0254,3.26416 z"
         style=""
         id="path4452" />
      <path
         d="m 556.63977,306.95056 -8.26294,0 0,-9.57031 1.58081,0 0,8.31421 5.10132,0 0,-8.31421 1.58081,0 0,8.31421 1.2561,0 0,3.67431 -1.2561,0 0,-2.41821 z"
         style=""
         id="path4454" />
      <path
         d="m 568.55139,301.77234 0,0.76904 -7.229,0 q 0.10254,1.62354 0.97412,2.47803 0.88013,0.84595 2.44385,0.84595 0.90576,0 1.75171,-0.22217 0.85449,-0.22217 1.69189,-0.66651 l 0,1.48682 q -0.84595,0.35889 -1.73462,0.54688 -0.88867,0.18798 -1.80298,0.18798 -2.29004,0 -3.63159,-1.333 -1.33301,-1.33301 -1.33301,-3.60596 0,-2.34985 1.26465,-3.72559 1.27319,-1.38427 3.42651,-1.38427 1.93116,0 3.05054,1.24755 1.12793,1.23902 1.12793,3.37525 z m -1.57226,-0.46143 q -0.0171,-1.29028 -0.72632,-2.05932 -0.70069,-0.76905 -1.8628,-0.76905 -1.31591,0 -2.11059,0.74341 -0.78613,0.74341 -0.90576,2.09351 l 5.60547,-0.009 z"
         style=""
         id="path4456" />
      <path
         d="m 579.33508,297.38025 0,9.57031 -1.58081,0 0,-8.31421 -5.10132,0 0,8.31421 -1.58081,0 0,-9.57031 8.26294,0 z"
         style=""
         id="path4458" />
      <path
         d="m 581.5824,306.95056 0,-1.30737 q 1.55517,-0.23926 2.03369,-1.31592 0.58105,-1.51245 0.58105,-5.3833 l 0,-1.56372 6.46851,0 0,9.57031 -1.57227,0 0,-8.31421 -3.32397,0 0,0.94849 q 0,3.69141 -0.75195,5.34912 -0.80323,1.7688 -3.43506,2.0166 z"
         style=""
         id="path4460" />
      <path
         d="m 601.94495,301.77234 0,0.76904 -7.22901,0 q 0.10254,1.62354 0.97412,2.47803 0.88013,0.84595 2.44385,0.84595 0.90576,0 1.75171,-0.22217 0.85449,-0.22217 1.69189,-0.66651 l 0,1.48682 q -0.84594,0.35889 -1.73461,0.54688 -0.88868,0.18798 -1.80298,0.18798 -2.29004,0 -3.63159,-1.333 -1.33301,-1.33301 -1.33301,-3.60596 0,-2.34985 1.26465,-3.72559 1.27319,-1.38427 3.42651,-1.38427 1.93115,0 3.05054,1.24755 1.12793,1.23902 1.12793,3.37525 z m -1.57227,-0.46143 q -0.0171,-1.29028 -0.72632,-2.05932 -0.70068,-0.76905 -1.86279,-0.76905 -1.31592,0 -2.1106,0.74341 -0.78613,0.74341 -0.90576,2.09351 l 5.60547,-0.009 z"
         style=""
         id="path4462" />
      <path
         d="m 604.4657,297.38025 1.58081,0 0,3.90503 5.10132,0 0,-3.90503 1.58081,0 0,9.57031 -1.58081,0 0,-4.40918 -5.10132,0 0,4.40918 -1.58081,0 0,-9.57031 z"
         style=""
         id="path4464" />
      <path
         d="m 624.11047,297.38025 0,9.57031 -1.56372,0 0,-7.68188 -4.61425,7.68188 -2.01661,0 0,-9.57031 1.56372,0 0,7.66479 4.60572,-7.66479 2.02514,0 z"
         style=""
         id="path4466" />
      <path
         d="m 635.54358,301.77234 0,0.76904 -7.229,0 q 0.10253,1.62354 0.97412,2.47803 0.88012,0.84595 2.44384,0.84595 0.90577,0 1.75171,-0.22217 0.8545,-0.22217 1.6919,-0.66651 l 0,1.48682 q -0.84595,0.35889 -1.73462,0.54688 -0.88867,0.18798 -1.80298,0.18798 -2.29004,0 -3.63159,-1.333 -1.33301,-1.33301 -1.33301,-3.60596 0,-2.34985 1.26465,-3.72559 1.27319,-1.38427 3.42651,-1.38427 1.93115,0 3.05054,1.24755 1.12793,1.23902 1.12793,3.37525 z m -1.57227,-0.46143 q -0.0171,-1.29028 -0.72631,-2.05932 -0.70069,-0.76905 -1.8628,-0.76905 -1.31592,0 -2.11059,0.74341 -0.78614,0.74341 -0.90577,2.09351 l 5.60547,-0.009 z"
         style=""
         id="path4468" />
      <path
         d="m 638.52576,304.78015 1.80298,0 0,1.46973 -1.40137,2.73437 -1.1023,0 0.70069,-2.73437 0,-1.46973 z"
         style=""
         id="path4470" />
      <path
         d="m 651.06116,295.61145 0,9.92065 2.08496,0 q 2.64038,0 3.8623,-1.19628 1.23047,-1.19629 1.23047,-3.77686 0,-2.56348 -1.23047,-3.75122 -1.22192,-1.19629 -3.8623,-1.19629 l -2.08496,0 z m -1.72608,-1.41846 3.54615,0 q 3.70849,0 5.44311,1.54663 1.73462,1.53809 1.73462,4.81934 0,3.29834 -1.74316,4.84497 -1.74317,1.54663 -5.43457,1.54663 l -3.54615,0 0,-12.75757 z"
         style=""
         id="path4472" />
      <path
         d="m 662.57117,303.17371 0,-5.79346 1.57226,0 0,5.73364 q 0,1.35864 0.52979,2.04224 0.52978,0.67505 1.58935,0.67505 1.2732,0 2.00806,-0.81177 0.74341,-0.81177 0.74341,-2.21314 l 0,-5.42602 1.57226,0 0,9.57031 -1.57226,0 0,-1.46973 q -0.57251,0.87159 -1.33301,1.29883 -0.75195,0.4187 -1.75171,0.4187 -1.64917,0 -2.50366,-1.02539 -0.85449,-1.02539 -0.85449,-2.99926 z m 3.9563,-6.02417 0,0 z"
         style=""
         id="path4474" />
      <path
         d="m 681.29309,299.21741 q 0.5896,-1.05957 1.40991,-1.56372 0.82032,-0.50415 1.93116,-0.50415 1.49536,0 2.30712,1.05102 0.81177,1.04248 0.81177,2.97363 l 0,5.77637 -1.58081,0 0,-5.7251 q 0,-1.37573 -0.48706,-2.04223 -0.48706,-0.66651 -1.48682,-0.66651 -1.22192,0 -1.93115,0.81177 -0.70923,0.81177 -0.70923,2.21314 l 0,5.40893 -1.58081,0 0,-5.7251 q 0,-1.38427 -0.48706,-2.04223 -0.48706,-0.66651 -1.5039,-0.66651 -1.20484,0 -1.91407,0.82032 -0.70922,0.81176 -0.70922,2.20459 l 0,5.40893 -1.58082,0 0,-9.57031 1.58082,0 0,1.48682 q 0.53833,-0.88013 1.29028,-1.29883 0.75195,-0.4187 1.78589,-0.4187 1.04248,0 1.7688,0.52978 0.73486,0.52979 1.0852,1.53809 z"
         style=""
         id="path4476" />
      <path
         d="m 697.7677,302.17395 q 0,-1.73462 -0.71777,-2.71728 -0.70923,-0.99122 -1.95679,-0.99122 -1.24756,0 -1.96533,0.99122 -0.70923,0.98266 -0.70923,2.71728 0,1.73462 0.70923,2.72583 0.71777,0.98267 1.96533,0.98267 1.24756,0 1.95679,-0.98267 0.71777,-0.99121 0.71777,-2.72583 z m -5.34912,-3.34106 q 0.4956,-0.8545 1.24756,-1.26465 0.7605,-0.4187 1.81152,-0.4187 1.74317,0 2.82837,1.38427 1.09375,1.38428 1.09375,3.64014 0,2.25586 -1.09375,3.64014 -1.0852,1.38427 -2.82837,1.38427 -1.05102,0 -1.81152,-0.41015 -0.75196,-0.4187 -1.24756,-1.2732 l 0,1.43555 -1.58081,0 0,-13.2959 1.58081,0 0,5.17823 z"
         style=""
         id="path4478" />
      <path
         d="m 701.75818,293.67175 1.36719,0 q 1.28173,2.0166 1.91406,3.94776 0.64087,1.93115 0.64087,3.83667 0,1.91406 -0.64087,3.85376 -0.63233,1.93969 -1.91406,3.94775 l -1.36719,0 q 1.13647,-1.95679 1.69189,-3.88794 0.56397,-1.9397 0.56397,-3.91357 0,-1.97388 -0.56397,-3.89649 -0.55542,-1.92261 -1.69189,-3.88794 z"
         style=""
         id="path4480" />
    </g>
  </g>
</svg>
