<?xml version="1.0" encoding="UTF-8" standalone="no"?><svg xmlns="http://www.w3.org/2000/svg" xmlns:xlink="http://www.w3.org/1999/xlink" contentScriptType="application/ecmascript" contentStyleType="text/css" height="198px" preserveAspectRatio="none" style="width:233px;height:198px;" version="1.1" viewBox="0 0 233 198" width="233px" zoomAndPan="magnify"><defs><filter height="300%" id="f97kdm3" width="300%" x="-1" y="-1"><feGaussianBlur result="blurOut" stdDeviation="2.0"/><feColorMatrix in="blurOut" result="blurOut2" type="matrix" values="0 0 0 0 0 0 0 0 0 0 0 0 0 0 0 0 0 0 .4 0"/><feOffset dx="4.0" dy="4.0" in="blurOut2" result="blurOut3"/><feBlend in="SourceGraphic" in2="blurOut3" mode="normal"/></filter></defs><g><rect fill="#FF7A7A" filter="url(#f97kdm3)" height="60.8906" style="stroke: #7A3A7A; stroke-width: 1.5;" width="86" x="127" y="8"/><text fill="#000033" font-family="sans-serif" font-size="10" font-style="italic" lengthAdjust="spacingAndGlyphs" textLength="47" x="146.5" y="17.2822">«Impure»</text><text fill="#333333" font-family="sans-serif" font-size="12" lengthAdjust="spacingAndGlyphs" textLength="52" x="144" y="32.7793">AppView</text><line style="stroke: #7A3A7A; stroke-width: 1.5;" x1="128" x2="212" y1="37.6094" y2="37.6094"/><text fill="#000000" font-family="sans-serif" font-size="10" lengthAdjust="spacingAndGlyphs" textLength="68" x="133" y="50.8916">todos: string[]</text><text fill="#000000" font-family="sans-serif" font-size="10" lengthAdjust="spacingAndGlyphs" textLength="74" x="133" y="62.5322">userId: number</text><rect fill="#7AFFFF" filter="url(#f97kdm3)" height="60.8906" style="stroke: #7A3A7A; stroke-width: 1.5;" width="86" x="6" y="8"/><text fill="#000033" font-family="sans-serif" font-size="10" font-style="italic" lengthAdjust="spacingAndGlyphs" textLength="34" x="32" y="17.2822">«Pure»</text><text fill="#333333" font-family="sans-serif" font-size="12" lengthAdjust="spacingAndGlyphs" textLength="66" x="16" y="32.7793">TodosView</text><line style="stroke: #7A3A7A; stroke-width: 1.5;" x1="7" x2="91" y1="37.6094" y2="37.6094"/><text fill="#000000" font-family="sans-serif" font-size="10" lengthAdjust="spacingAndGlyphs" textLength="68" x="12" y="50.8916">todos: string[]</text><text fill="#000000" font-family="sans-serif" font-size="10" lengthAdjust="spacingAndGlyphs" textLength="74" x="12" y="62.5322">userId: number</text><rect fill="#7AFFFF" filter="url(#f97kdm3)" height="60.8906" style="stroke: #7A3A7A; stroke-width: 1.5;" width="86" x="6" y="129"/><text fill="#000033" font-family="sans-serif" font-size="10" font-style="italic" lengthAdjust="spacingAndGlyphs" textLength="34" x="32" y="138.2822">«Pure»</text><text fill="#333333" font-family="sans-serif" font-size="12" lengthAdjust="spacingAndGlyphs" textLength="59" x="19.5" y="153.7793">TodoView</text><line style="stroke: #7A3A7A; stroke-width: 1.5;" x1="7" x2="91" y1="158.6094" y2="158.6094"/><text fill="#000000" font-family="sans-serif" font-size="10" lengthAdjust="spacingAndGlyphs" textLength="51" x="12" y="171.8916">title: string</text><text fill="#000000" font-family="sans-serif" font-size="10" lengthAdjust="spacingAndGlyphs" textLength="74" x="12" y="183.5322">userId: number</text><rect fill="#7AFFFF" filter="url(#f97kdm3)" height="60.8906" style="stroke: #7A3A7A; stroke-width: 1.5;" width="97" x="127.5" y="129"/><text fill="#000033" font-family="sans-serif" font-size="10" font-style="italic" lengthAdjust="spacingAndGlyphs" textLength="34" x="159" y="138.2822">«Pure»</text><text fill="#333333" font-family="sans-serif" font-size="12" lengthAdjust="spacingAndGlyphs" textLength="83" x="134.5" y="153.7793">TodoEditView</text><line style="stroke: #7A3A7A; stroke-width: 1.5;" x1="128.5" x2="223.5" y1="158.6094" y2="158.6094"/><text fill="#000000" font-family="sans-serif" font-size="10" lengthAdjust="spacingAndGlyphs" textLength="51" x="133.5" y="171.8916">title: string</text><text fill="#000000" font-family="sans-serif" font-size="10" lengthAdjust="spacingAndGlyphs" textLength="74" x="133.5" y="183.5322">userId: number</text><path d="M92.0117,38.5 C101.8697,38.5 111.728,38.5 121.586,38.5 " fill="none" style="stroke: #7A7A7A; stroke-width: 1.0;"/><polygon fill="#7A7A7A" points="126.741,38.5,117.741,34.5,121.741,38.5,117.741,42.5,126.741,38.5" style="stroke: #7A7A7A; stroke-width: 1.0;"/><path d="M49,74.457 C49,91.6962 49,112.2688 49,128.7447 " fill="none" style="stroke: #7A7A7A; stroke-width: 1.0;"/><polygon fill="#7A7A7A" points="49,69.222,45,78.222,49,74.222,53,78.222,49,69.222" style="stroke: #7A7A7A; stroke-width: 1.0;"/><path d="M97.3618,159.5 C107.309,159.5 117.256,159.5 127.203,159.5 " fill="none" style="stroke: #7A7A7A; stroke-width: 1.0;"/><polygon fill="#7A7A7A" points="92.1602,159.5,101.1602,163.5,97.1602,159.5,101.1602,155.5,92.1602,159.5" style="stroke: #7A7A7A; stroke-width: 1.0;"/></g></svg>